<svg width="100%" height="100%" viewBox="0 0 3708 1266" xml:space="preserve"
     xmlns="http://www.w3.org/2000/svg"
    xmlns:xlink="http://www.w3.org/1999/xlink">
     
  <desc>
    Flying Bird Animation
    
    From 8 frame uploads by Firkin https://openclipart.org/user-detail/Firkin 
      https://openclipart.org/detail/239736/flying-bird-22-frame-1
      https://openclipart.org/detail/239737/flying-bird-22-frame-2
      https://openclipart.org/detail/239738/flying-bird-22-frame-3
      https://openclipart.org/detail/239739/flying-bird-22-frame-4
      https://openclipart.org/detail/239740/flying-bird-22-frame-5
      https://openclipart.org/detail/239741/flying-bird-22-frame-6
      https://openclipart.org/detail/239742/flying-bird-22-frame-7
      https://openclipart.org/detail/239743/flying-bird-22-frame-8
      
    Appears original work from:
      http://opengameart.org/content/game-character-blue-flappy-bird-sprite-sheets
    
    Animation by
    Jay Nick
    STEAMcoded.org
  </desc>
<!--      
  <script type="application/x-javascript"><![CDATA[
    var FlyingBird = new function()
    {
      window.addEventListener("load",init);
      var frame = 0;
      
      function init()
      {
        setTimeout(startAnimation,1000);
      }
      
      function startAnimation()
      {
        setInterval(DisplayNextFrame,125);
        document.documentElement.setAttribute("viewBox","0 0 927 633");
        document.getElementById("sprites").setAttribute("style","clip-path:url(#cp1);");
      }
      
      function DisplayNextFrame()
      {
        document.documentElement.setAttribute("viewBox",(frame%4)*927+" "+Math.floor(frame/4)*633+" 927 633");
        document.getElementById("cp").setAttribute("x",(frame%4)*927);
        document.getElementById("cp").setAttribute("y",Math.floor(frame/4)*633);
        frame++;
        if(frame>7) frame=0;
      }
    }();
  ]]>
  </script> -->

  <defs>
    <clipPath id="cp1" viewBox="0 0 927 633">
      <rect id="cp" x="0" width="927" height="633" />
    </clipPath>
  </defs>

  <g id="sprites">
     
  <g id="f1">
    <path fill="#000000" opacity="1.00" d=" M 592.43 5.98 C 615.11 1.31 638.64 20.53 639.93 43.47 C 641.56 58.47 636.73 73.29 629.08 86.02 C 660.76 97.40 684.79 125.95 692.44 158.49 C 698.28 176.30 692.23 196.20 696.09 213.73 C 771.26 253.80 847.65 291.99 922.31 332.86 C 846.54 333.20 770.78 332.88 695.01 333.01 C 694.98 349.34 694.95 365.66 695.01 381.99 C 741.11 382.19 787.23 381.65 833.33 382.24 C 785.95 408.31 736.99 432.60 689.19 458.23 C 676.64 494.67 641.86 521.76 603.71 525.89 C 531.58 526.33 459.43 525.58 387.30 526.24 C 379.95 526.62 372.60 527.03 365.26 527.24 C 340.51 526.84 315.76 526.99 291.02 527.05 C 283.10 526.96 275.20 527.01 267.29 526.82 C 216.15 526.26 169.98 483.83 166.12 432.64 C 165.73 397.38 166.21 362.11 165.95 326.85 C 137.94 350.88 98.46 371.07 61.40 356.57 C 47.13 349.48 29.59 336.29 33.84 318.30 C 48.69 299.07 76.22 299.84 98.16 295.30 C 73.15 288.16 48.37 275.67 32.37 254.62 C 18.16 235.41 11.36 206.94 24.73 185.77 C 36.56 174.60 55.15 182.31 67.72 188.30 C 103.83 206.99 135.76 232.83 165.60 260.22 C 166.50 235.13 165.81 210.02 165.94 184.91 C 163.96 154.98 178.54 125.87 199.82 105.48 C 198.04 79.38 207.48 49.10 229.67 33.88 C 239.12 51.46 245.51 84.38 271.63 78.92 C 276.68 62.15 284.01 43.22 299.67 33.88 C 305.60 50.18 314.52 65.29 325.34 78.81 C 400.95 79.18 476.56 79.02 552.16 78.89 C 533.36 70.10 514.25 61.21 498.24 47.78 C 492.24 43.16 489.54 32.39 497.24 28.17 C 528.20 9.65 568.82 23.07 592.00 48.08 C 587.94 35.30 578.55 15.10 592.43 5.98 M 293.98 72.04 C 293.33 74.35 292.69 76.65 292.04 78.96 L 296.96 78.96 C 296.31 76.65 295.66 74.35 295.02 72.04 L 293.98 72.04 M 224.37 72.46 C 213.11 99.78 224.97 129.21 238.98 153.02 C 260.47 187.57 291.01 215.34 323.02 239.98 C 279.64 228.57 240.75 200.85 215.69 163.67 C 205.62 172.49 204.65 187.82 210.96 199.08 C 223.36 221.72 246.95 234.60 267.96 248.02 C 294.78 262.74 322.56 275.80 351.25 286.40 C 308.23 285.99 264.63 272.66 228.76 248.38 C 226.07 276.23 240.59 304.38 265.21 317.78 C 295.56 333.66 330.72 338.40 364.58 338.22 C 327.09 344.24 284.80 343.26 249.46 326.53 C 212.71 308.40 204.37 263.24 208.75 226.27 C 202.82 220.42 197.53 213.96 193.59 206.61 C 192.21 259.32 193.33 312.22 193.07 365.00 C 192.99 386.55 192.80 408.11 193.12 429.66 C 195.43 463.83 223.88 493.33 257.35 498.85 C 345.93 499.17 434.53 498.97 523.11 498.94 C 548.33 499.04 573.55 499.04 598.78 499.00 C 637.71 496.72 671.00 459.12 668.07 420.09 C 667.88 341.43 668.10 262.77 667.96 184.11 C 670.37 143.92 635.59 107.64 595.99 105.92 C 490.93 106.19 385.87 105.77 280.82 106.13 C 293.25 119.41 307.56 130.69 320.75 143.18 L 321.69 143.16 L 320.75 143.18 C 376.16 189.47 439.50 247.78 437.34 326.12 C 432.85 289.00 411.51 256.31 386.67 229.33 C 347.60 187.57 299.07 156.48 257.27 117.73 C 243.72 104.79 231.33 90.06 224.37 72.46 M 206.19 138.99 C 203.37 142.19 201.77 146.21 199.91 150.00 C 202.77 147.28 211.36 142.67 206.19 138.99 M 695.11 233.94 C 695.05 238.23 695.02 242.53 695.04 246.84 C 694.89 254.84 694.95 262.85 695.12 270.86 C 694.79 285.57 695.05 300.28 695.01 314.99 C 746.42 314.55 797.89 315.91 849.26 314.32 C 797.64 287.97 746.56 260.63 695.11 233.94 M 695.00 398.02 C 694.99 399.68 694.99 401.35 694.99 403.03 C 695.02 406.05 694.97 409.02 695.05 412.08 C 694.95 420.50 694.67 428.91 694.28 437.33 C 719.08 424.40 743.79 411.34 768.61 398.47 C 744.11 397.28 719.53 398.34 695.00 398.02 Z" />
    <path fill="#00adee" opacity="1.00" d=" M 293.98 72.04 L 295.02 72.04 C 295.66 74.35 296.31 76.65 296.96 78.96 L 292.04 78.96 C 292.69 76.65 293.33 74.35 293.98 72.04 Z" />
    <path fill="#00adee" opacity="1.00" d=" M 224.37 72.46 C 231.33 90.06 243.72 104.79 257.27 117.73 C 299.07 156.48 347.60 187.57 386.67 229.33 C 411.51 256.31 432.85 289.00 437.34 326.12 C 439.50 247.78 376.16 189.47 320.75 143.18 L 321.69 143.16 C 413.39 142.85 505.11 142.99 596.82 143.07 C 625.70 143.29 652.01 160.80 667.96 184.11 C 668.10 262.77 667.88 341.43 668.07 420.09 C 671.00 459.12 637.71 496.72 598.78 499.00 C 573.55 499.04 548.33 499.04 523.11 498.94 C 500.54 461.51 462.90 436.87 424.99 417.00 C 353.19 381.90 272.89 364.43 193.07 365.00 C 193.33 312.22 192.21 259.32 193.59 206.61 C 197.53 213.96 202.82 220.42 208.75 226.27 C 204.37 263.24 212.71 308.40 249.46 326.53 C 284.80 343.26 327.09 344.24 364.58 338.22 C 330.72 338.40 295.56 333.66 265.21 317.78 C 240.59 304.38 226.07 276.23 228.76 248.38 C 264.63 272.66 308.23 285.99 351.25 286.40 C 322.56 275.80 294.78 262.74 267.96 248.02 C 246.95 234.60 223.36 221.72 210.96 199.08 C 204.65 187.82 205.62 172.49 215.69 163.67 C 240.75 200.85 279.64 228.57 323.02 239.98 C 291.01 215.34 260.47 187.57 238.98 153.02 C 224.97 129.21 213.11 99.78 224.37 72.46 M 504.03 257.03 C 470.77 280.73 462.20 330.92 482.00 365.99 C 497.21 394.44 529.40 413.41 561.84 411.09 C 603.61 411.09 642.28 375.52 644.72 333.71 C 658.80 287.25 623.91 235.07 575.91 229.94 C 549.30 227.52 522.00 236.99 504.03 257.03 M 470.04 398.49 C 459.22 399.75 456.67 413.72 464.27 420.70 C 479.10 436.86 503.36 447.03 525.16 441.33 C 535.08 438.90 534.75 425.61 528.66 419.33 C 514.00 403.69 491.39 395.27 470.04 398.49 Z" />
    <path fill="#84d9f4" opacity="1.00" d=" M 280.82 106.13 C 385.87 105.77 490.93 106.19 595.99 105.92 C 635.59 107.64 670.37 143.92 667.96 184.11 C 652.01 160.80 625.70 143.29 596.82 143.07 C 505.11 142.99 413.39 142.85 321.69 143.16 L 320.75 143.18 C 307.56 130.69 293.25 119.41 280.82 106.13 Z" />
    <path fill="#5890a2" opacity="1.00" d=" M 206.19 138.99 C 211.36 142.67 202.77 147.28 199.91 150.00 C 201.77 146.21 203.37 142.19 206.19 138.99 Z" />
    <path fill="#000000" opacity="1.00" d=" M 504.03 257.03 C 522.00 236.99 549.30 227.52 575.91 229.94 C 623.91 235.07 658.80 287.25 644.72 333.71 C 636.52 359.73 616.04 381.61 589.85 389.88 C 557.99 399.79 520.75 388.10 500.67 361.34 C 477.03 331.31 478.24 285.50 504.03 257.03 M 529.40 255.05 L 529.22 255.72 C 503.56 271.78 491.10 306.67 503.13 334.95 C 516.88 375.09 570.82 391.62 604.39 365.57 L 603.46 365.46 C 628.48 350.30 639.22 315.67 628.36 288.55 C 615.32 249.43 563.53 231.90 529.40 255.05 Z" />
    <path fill="#f6921e" opacity="1.00" d=" M 695.11 233.94 C 746.56 260.63 797.64 287.97 849.26 314.32 C 797.89 315.91 746.42 314.55 695.01 314.99 C 695.05 300.28 694.79 285.57 695.12 270.86 C 733.41 280.43 770.98 292.66 809.06 302.98 C 771.11 284.17 733.24 265.17 695.04 246.84 C 695.02 242.53 695.05 238.23 695.11 233.94 Z" />
    <path fill="#ffffff" opacity="1.00" d=" M 529.40 255.05 C 563.53 231.90 615.32 249.43 628.36 288.55 C 639.22 315.67 628.48 350.30 603.46 365.46 C 563.96 369.94 524.31 338.58 522.07 298.56 C 519.92 283.64 524.60 269.55 529.22 255.72 L 529.40 255.05 M 562.99 330.93 C 576.51 352.77 614.76 335.21 605.86 310.54 C 603.08 321.88 585.29 321.88 583.26 310.41 C 580.65 302.81 587.83 298.21 593.34 294.89 C 571.52 283.93 548.24 311.66 562.99 330.93 Z" />
    <path fill="#ffffff" opacity="1.00" d=" M 695.04 246.84 C 733.24 265.17 771.11 284.17 809.06 302.98 C 770.98 292.66 733.41 280.43 695.12 270.86 C 694.95 262.85 694.89 254.84 695.04 246.84 Z" />
    <path fill="#d0d2d3" opacity="1.00" d=" M 503.13 334.95 C 491.10 306.67 503.56 271.78 529.22 255.72 C 524.60 269.55 519.92 283.64 522.07 298.56 C 524.31 338.58 563.96 369.94 603.46 365.46 L 604.39 365.57 C 570.82 391.62 516.88 375.09 503.13 334.95 Z" />
    <path fill="#0594c1" opacity="1.00" d=" M 482.00 365.99 C 462.20 330.92 470.77 280.73 504.03 257.03 C 478.24 285.50 477.03 331.31 500.67 361.34 C 520.75 388.10 557.99 399.79 589.85 389.88 C 616.04 381.61 636.52 359.73 644.72 333.71 C 642.28 375.52 603.61 411.09 561.84 411.09 C 529.40 413.41 497.21 394.44 482.00 365.99 Z" />
    <path fill="#000000" opacity="1.00" d=" M 562.99 330.93 C 548.24 311.66 571.52 283.93 593.34 294.89 C 587.83 298.21 580.65 302.81 583.26 310.41 C 585.29 321.88 603.08 321.88 605.86 310.54 C 614.76 335.21 576.51 352.77 562.99 330.93 Z" />
    <path fill="#ffffff" opacity="1.00" d=" M 193.07 365.00 C 272.89 364.43 353.19 381.90 424.99 417.00 C 462.90 436.87 500.54 461.51 523.11 498.94 C 434.53 498.97 345.93 499.17 257.35 498.85 C 223.88 493.33 195.43 463.83 193.12 429.66 C 192.80 408.11 192.99 386.55 193.07 365.00 Z" />
    <path fill="#000000" opacity="1.00" d=" M 470.04 398.49 C 491.39 395.27 514.00 403.69 528.66 419.33 C 534.75 425.61 535.08 438.90 525.16 441.33 C 503.36 447.03 479.10 436.86 464.27 420.70 C 456.67 413.72 459.22 399.75 470.04 398.49 Z" />
    <path fill="#f6921e" opacity="1.00" d=" M 695.00 398.02 C 719.53 398.34 744.11 397.28 768.61 398.47 C 743.79 411.34 719.08 424.40 694.28 437.33 C 694.67 428.91 694.95 420.50 695.05 412.08 C 711.96 410.02 728.58 406.25 745.35 403.34 C 728.57 402.72 711.78 403.02 694.99 403.03 C 694.99 401.35 694.99 399.68 695.00 398.02 Z" />
    <path fill="#ffffff" opacity="1.00" d=" M 694.99 403.03 C 711.78 403.02 728.57 402.72 745.35 403.34 C 728.58 406.25 711.96 410.02 695.05 412.08 C 694.97 409.02 695.02 406.05 694.99 403.03 Z" />
    <path fill="#f6921e" opacity="1.00" d=" M 365.26 527.24 C 372.60 527.03 379.95 526.62 387.30 526.24 C 383.09 542.76 362.11 554.36 368.29 571.89 C 372.24 590.50 360.62 607.88 346.98 619.30 C 343.01 614.40 339.65 609.04 335.94 603.97 C 344.07 596.10 351.79 586.18 349.94 574.01 C 336.65 581.08 323.41 589.29 308.39 592.03 C 306.56 586.22 304.72 580.36 303.95 574.30 C 329.12 566.83 354.23 552.14 365.26 527.24 Z" />
    <path fill="#f6921e" opacity="1.00" d=" M 266.33 526.79 L 267.29 526.82 C 275.20 527.01 283.10 526.96 291.02 527.05 C 285.04 539.64 273.96 549.01 265.23 559.33 C 270.96 583.20 258.64 610.78 235.54 620.05 C 233.00 613.97 229.61 608.31 227.03 602.26 C 236.96 595.47 246.82 585.25 245.01 572.07 C 229.87 578.92 213.92 584.57 197.23 585.89 C 196.97 578.95 196.11 572.09 195.17 565.22 C 222.54 562.81 250.10 549.43 266.33 526.79 Z" />
  </g>
  <g id="f2" transform="translate(927,0)">
    <path fill="#000000" opacity="1.00" d=" M 590.75 6.46 C 613.76 0.21 638.68 19.99 639.93 43.48 C 641.54 58.47 636.74 73.30 629.08 86.01 C 669.94 100.61 697.75 143.92 695.06 187.02 C 696.20 195.58 692.60 205.88 696.11 213.69 C 771.24 253.83 847.63 291.99 922.32 332.83 C 846.55 333.23 770.78 332.87 695.01 333.01 C 694.98 349.33 694.96 365.66 695.01 381.99 C 741.13 382.23 787.26 381.58 833.37 382.29 C 785.86 408.28 737.01 432.60 689.21 458.26 C 676.59 494.66 641.87 521.78 603.70 525.88 C 531.57 526.35 459.42 525.57 387.30 526.25 C 379.94 526.63 372.60 527.04 365.25 527.25 C 340.51 526.85 315.77 526.96 291.04 527.08 C 283.11 526.98 275.19 527.03 267.28 526.82 C 216.11 526.18 169.97 483.85 166.13 432.62 C 165.69 397.37 166.25 362.10 165.92 326.85 C 138.33 350.57 100.34 369.99 63.45 357.53 C 48.38 350.49 29.63 337.20 33.83 318.32 C 48.69 298.97 76.33 299.97 98.27 295.16 C 75.46 289.17 53.69 277.84 37.25 260.75 C 19.67 241.14 10.02 209.39 24.73 185.78 C 35.16 175.59 51.99 181.16 63.61 186.41 C 101.78 204.63 134.33 232.43 165.93 260.11 C 166.27 230.17 165.66 200.23 166.15 170.29 C 171.58 122.83 212.67 82.56 260.47 79.24 C 357.69 78.59 454.93 79.32 552.15 78.89 C 533.36 70.10 514.23 61.22 498.25 47.77 C 491.11 42.65 490.03 30.47 499.09 27.03 C 530.11 10.28 569.20 23.54 592.00 48.10 C 587.58 35.04 580.35 17.92 590.75 6.46 M 193.06 184.08 C 192.87 194.93 192.92 205.80 193.22 216.65 C 255.82 246.39 329.02 241.08 391.26 271.75 C 413.70 281.91 432.32 301.72 438.00 326.01 C 414.72 290.49 373.59 273.27 332.66 269.33 C 292.89 264.97 253.08 258.84 215.14 245.91 C 222.48 260.35 238.15 267.17 251.89 274.11 C 279.59 285.65 308.85 293.08 338.47 297.62 C 294.13 300.22 246.77 293.97 208.95 269.04 C 215.61 281.46 229.18 287.76 241.27 293.74 C 276.91 308.10 315.67 312.45 353.69 315.11 L 353.84 315.80 C 309.06 320.59 261.64 320.14 219.97 300.99 C 237.16 322.71 266.54 326.35 292.04 330.99 C 317.49 332.38 342.81 335.83 368.31 336.44 C 336.31 342.79 303.31 344.07 270.90 340.11 C 248.41 336.28 223.56 331.24 208.09 312.91 C 200.08 305.22 202.46 292.08 193.38 285.31 C 192.43 311.85 193.22 338.44 193.07 365.00 C 193.01 386.54 192.77 408.10 193.13 429.65 C 195.50 463.77 223.87 493.39 257.37 498.84 C 345.93 499.17 434.51 498.98 523.08 498.93 C 548.95 498.95 574.83 499.25 600.70 498.83 C 638.83 495.48 670.94 458.46 668.07 420.09 C 667.85 341.42 668.14 262.74 667.93 184.07 C 670.34 144.18 636.12 108.23 596.90 105.95 C 486.97 106.03 377.04 106.02 267.11 105.96 C 226.76 106.25 190.80 143.64 193.06 184.08 M 695.13 233.92 C 695.02 238.22 695.07 242.53 695.05 246.85 C 694.91 254.85 694.97 262.85 695.13 270.86 C 694.81 285.57 695.04 300.28 695.01 315.00 C 746.41 314.55 797.88 315.91 849.25 314.32 C 797.66 287.93 746.52 260.69 695.13 233.92 M 695.00 398.01 C 695.00 399.68 694.99 401.35 694.99 403.02 C 695.02 406.05 694.98 409.03 695.06 412.08 C 694.95 420.50 694.66 428.92 694.31 437.34 C 719.07 424.36 743.82 411.36 768.62 398.45 C 744.10 397.31 719.53 398.32 695.00 398.01 Z" />
    <path fill="#84d9f4" opacity="1.00" d=" M 193.06 184.08 C 190.80 143.64 226.76 106.25 267.11 105.96 C 377.04 106.02 486.97 106.03 596.90 105.95 C 636.12 108.23 670.34 144.18 667.93 184.07 C 651.37 159.49 623.06 141.99 592.84 143.09 C 484.55 142.81 376.26 143.19 267.97 142.90 C 237.81 141.80 209.73 159.74 193.06 184.08 Z" />
    <path fill="#00adee" opacity="1.00" d=" M 193.06 184.08 C 209.73 159.74 237.81 141.80 267.97 142.90 C 376.26 143.19 484.55 142.81 592.84 143.09 C 623.06 141.99 651.37 159.49 667.93 184.07 C 668.14 262.74 667.85 341.42 668.07 420.09 C 670.94 458.46 638.83 495.48 600.70 498.83 C 574.83 499.25 548.95 498.95 523.08 498.93 C 505.58 469.71 478.21 447.94 449.40 430.61 C 372.34 385.40 281.96 364.80 193.07 365.00 C 193.22 338.44 192.43 311.85 193.38 285.31 C 202.46 292.08 200.08 305.22 208.09 312.91 C 223.56 331.24 248.41 336.28 270.90 340.11 C 303.31 344.07 336.31 342.79 368.31 336.44 C 342.81 335.83 317.49 332.38 292.04 330.99 C 266.54 326.35 237.16 322.71 219.97 300.99 C 261.64 320.14 309.06 320.59 353.84 315.80 L 353.69 315.11 C 315.67 312.45 276.91 308.10 241.27 293.74 C 229.18 287.76 215.61 281.46 208.95 269.04 C 246.77 293.97 294.13 300.22 338.47 297.62 C 308.85 293.08 279.59 285.65 251.89 274.11 C 238.15 267.17 222.48 260.35 215.14 245.91 C 253.08 258.84 292.89 264.97 332.66 269.33 C 373.59 273.27 414.72 290.49 438.00 326.01 C 432.32 301.72 413.70 281.91 391.26 271.75 C 329.02 241.08 255.82 246.39 193.22 216.65 C 192.92 205.80 192.87 194.93 193.06 184.08 M 504.02 257.03 C 470.77 280.76 462.20 330.92 482.00 365.99 C 497.21 394.44 529.39 413.41 561.84 411.10 C 603.61 411.09 642.29 375.53 644.71 333.72 C 657.32 291.29 630.11 243.77 587.72 232.27 C 558.02 224.61 524.61 234.06 504.02 257.03 M 470.07 398.50 C 459.22 399.69 456.69 413.72 464.26 420.69 C 479.09 436.87 503.34 447.00 525.15 441.34 C 535.07 438.91 534.74 425.63 528.66 419.34 C 514.01 403.70 491.41 395.26 470.07 398.50 Z" />
    <path fill="#000000" opacity="1.00" d=" M 504.02 257.03 C 524.61 234.06 558.02 224.61 587.72 232.27 C 630.11 243.77 657.32 291.29 644.71 333.72 C 632.13 378.10 579.89 406.91 536.21 387.71 C 483.73 370.18 466.56 296.89 504.02 257.03 M 529.39 255.04 L 529.21 255.71 C 488.60 279.41 489.36 344.71 530.19 367.81 C 551.98 382.53 583.26 381.77 603.80 365.29 C 628.55 350.01 639.17 315.56 628.36 288.54 C 615.31 249.43 563.54 231.92 529.39 255.04 Z" />
    <path fill="#f6921e" opacity="1.00" d=" M 695.13 233.92 C 746.52 260.69 797.66 287.93 849.25 314.32 C 797.88 315.91 746.41 314.55 695.01 315.00 C 695.04 300.28 694.81 285.57 695.13 270.86 C 733.41 280.42 770.98 292.68 809.07 302.97 C 771.10 284.19 733.26 265.16 695.05 246.85 C 695.07 242.53 695.02 238.22 695.13 233.92 Z" />
    <path fill="#ffffff" opacity="1.00" d=" M 529.39 255.04 C 563.54 231.92 615.31 249.43 628.36 288.54 C 639.17 315.56 628.55 350.01 603.80 365.29 C 564.19 370.28 524.31 338.63 522.08 298.55 C 519.96 283.65 524.58 269.53 529.21 255.71 L 529.39 255.04 M 562.98 330.92 C 576.54 352.73 614.64 335.29 605.93 310.54 C 603.04 321.82 585.32 321.92 583.26 310.41 C 580.65 302.80 587.86 298.25 593.32 294.86 C 571.48 283.99 548.29 311.62 562.98 330.92 Z" />
    <path fill="#ffffff" opacity="1.00" d=" M 695.05 246.85 C 733.26 265.16 771.10 284.19 809.07 302.97 C 770.98 292.68 733.41 280.42 695.13 270.86 C 694.97 262.85 694.91 254.85 695.05 246.85 Z" />
    <path fill="#d0d2d3" opacity="1.00" d=" M 530.19 367.81 C 489.36 344.71 488.60 279.41 529.21 255.71 C 524.58 269.53 519.96 283.65 522.08 298.55 C 524.31 338.63 564.19 370.28 603.80 365.29 C 583.26 381.77 551.98 382.53 530.19 367.81 Z" />
    <path fill="#0594c1" opacity="1.00" d=" M 482.00 365.99 C 462.20 330.92 470.77 280.76 504.02 257.03 C 466.56 296.89 483.73 370.18 536.21 387.71 C 579.89 406.91 632.13 378.10 644.71 333.72 C 642.29 375.53 603.61 411.09 561.84 411.10 C 529.39 413.41 497.21 394.44 482.00 365.99 Z" />
    <path fill="#000000" opacity="1.00" d=" M 562.98 330.92 C 548.29 311.62 571.48 283.99 593.32 294.86 C 587.86 298.25 580.65 302.80 583.26 310.41 C 585.32 321.92 603.04 321.82 605.93 310.54 C 614.64 335.29 576.54 352.73 562.98 330.92 Z" />
    <path fill="#ffffff" opacity="1.00" d=" M 193.07 365.00 C 281.96 364.80 372.34 385.40 449.40 430.61 C 478.21 447.94 505.58 469.71 523.08 498.93 C 434.51 498.98 345.93 499.17 257.37 498.84 C 223.87 493.39 195.50 463.77 193.13 429.65 C 192.77 408.10 193.01 386.54 193.07 365.00 Z" />
    <path fill="#000000" opacity="1.00" d=" M 470.07 398.50 C 491.41 395.26 514.01 403.70 528.66 419.34 C 534.74 425.63 535.07 438.91 525.15 441.34 C 503.34 447.00 479.09 436.87 464.26 420.69 C 456.69 413.72 459.22 399.69 470.07 398.50 Z" />
    <path fill="#f6921e" opacity="1.00" d=" M 695.00 398.01 C 719.53 398.32 744.10 397.31 768.62 398.45 C 743.82 411.36 719.07 424.36 694.31 437.34 C 694.66 428.92 694.95 420.50 695.06 412.08 C 711.96 410.01 728.57 406.27 745.32 403.33 C 728.54 402.78 711.76 402.99 694.99 403.02 C 694.99 401.35 695.00 399.68 695.00 398.01 Z" />
    <path fill="#ffffff" opacity="1.00" d=" M 694.99 403.02 C 711.76 402.99 728.54 402.78 745.32 403.33 C 728.57 406.27 711.96 410.01 695.06 412.08 C 694.98 409.03 695.02 406.05 694.99 403.02 Z" />
    <path fill="#f6921e" opacity="1.00" d=" M 365.25 527.25 C 372.60 527.04 379.94 526.63 387.30 526.25 C 383.04 542.75 362.18 554.35 368.26 571.90 C 372.27 590.52 360.60 607.86 346.98 619.31 C 343.04 614.39 339.63 609.06 335.94 603.97 C 344.08 596.10 351.77 586.19 349.93 574.01 C 336.65 581.11 323.39 589.25 308.39 592.05 C 306.56 586.23 304.77 580.36 303.95 574.30 C 329.11 566.83 354.22 552.15 365.25 527.25 Z" />
    <path fill="#f6921e" opacity="1.00" d=" M 266.30 526.79 L 267.28 526.82 C 275.19 527.03 283.11 526.98 291.04 527.08 C 284.56 539.24 274.89 549.46 264.96 558.89 C 271.36 582.91 258.64 610.63 235.57 620.10 C 232.97 614.03 229.67 608.31 227.03 602.26 C 236.97 595.47 246.81 585.25 245.01 572.06 C 229.87 578.95 213.92 584.53 197.24 585.90 C 196.87 578.97 196.19 572.08 195.19 565.22 C 222.63 562.89 249.91 549.29 266.30 526.79 Z" />
  </g>
  <g id="f3" transform="translate(1854,0)">
    <path fill="#000000" opacity="1.00" d=" M 589.97 6.76 C 611.53 0.11 635.51 17.24 639.37 38.96 C 642.30 55.33 637.60 72.04 629.08 86.01 C 669.94 100.62 697.75 143.92 695.06 187.03 C 696.20 195.57 692.58 205.89 696.11 213.67 C 771.25 253.82 847.60 292.05 922.36 332.79 C 846.58 333.29 770.79 332.84 695.01 333.00 C 694.97 349.33 694.97 365.66 695.01 381.99 C 741.14 382.23 787.29 381.58 833.42 382.29 C 785.90 408.23 737.03 432.60 689.22 458.26 C 676.58 494.67 641.87 521.79 603.68 525.88 C 548.21 526.34 492.72 525.60 437.25 526.21 C 425.39 548.08 414.48 571.51 415.61 597.09 C 394.30 591.59 380.55 572.28 370.93 553.69 C 377.49 545.75 382.58 536.77 386.09 527.09 C 379.77 527.08 373.47 527.06 367.16 527.05 C 359.06 541.52 351.68 556.57 348.17 572.90 C 346.19 580.56 345.62 588.47 344.64 596.30 C 344.31 596.53 343.64 596.98 343.31 597.21 C 336.88 594.56 331.14 590.43 325.36 586.62 C 320.46 582.15 315.96 577.26 312.00 571.95 C 302.46 558.83 295.83 542.80 297.05 526.32 C 295.43 526.43 292.19 526.67 290.58 526.79 C 282.82 526.93 275.06 527.01 267.31 526.85 C 216.14 526.17 169.96 483.87 166.13 432.61 C 165.67 397.35 166.28 362.09 165.91 326.83 C 138.35 350.59 100.31 369.99 63.45 357.52 C 48.37 350.51 29.66 337.20 33.82 318.33 C 48.64 299.04 76.21 299.90 98.13 295.25 C 73.12 288.20 48.37 275.64 32.38 254.62 C 18.06 235.29 11.11 206.24 25.20 185.24 C 38.07 174.48 56.76 182.99 69.74 189.27 C 105.17 207.85 136.14 233.95 165.99 260.03 C 166.20 230.12 165.68 200.21 166.15 170.30 C 171.58 122.85 212.67 82.52 260.49 79.26 C 357.69 78.55 454.94 79.36 552.16 78.87 C 533.35 70.13 514.23 61.21 498.25 47.76 C 491.09 42.67 490.03 30.46 499.09 27.02 C 530.11 10.29 569.21 23.53 591.99 48.11 C 587.54 35.11 580.95 19.00 589.97 6.76 M 193.07 184.03 C 192.94 244.35 192.96 304.68 193.07 365.00 C 192.91 384.96 192.98 404.92 192.97 424.89 C 192.65 465.61 231.06 502.59 271.98 499.03 C 265.87 484.98 274.18 469.58 267.15 455.88 C 264.14 443.76 262.85 429.69 269.75 418.66 C 280.23 399.42 301.48 390.79 319.23 379.80 L 320.03 380.01 C 341.66 367.86 365.25 356.85 379.84 335.84 C 369.00 371.96 332.07 389.61 304.95 411.95 C 293.55 421.17 280.69 433.90 282.45 449.91 C 301.79 424.81 332.58 411.55 362.03 402.01 C 341.20 419.29 317.71 434.41 302.05 456.98 C 292.59 470.06 292.11 489.50 304.32 501.12 C 313.09 453.76 357.06 425.39 396.84 404.81 C 366.77 436.58 331.51 468.91 322.50 513.67 C 321.24 528.83 320.42 545.21 327.74 559.07 C 335.80 512.41 371.73 478.20 398.68 441.68 C 423.86 409.26 448.66 368.56 437.11 325.71 C 449.33 355.97 440.72 390.16 429.89 419.69 C 417.08 447.25 401.11 473.17 384.63 498.66 C 430.77 499.41 476.93 498.87 523.09 498.93 C 547.33 499.05 571.58 499.05 595.83 498.99 C 636.02 498.74 671.06 460.01 668.08 420.09 C 667.85 341.42 668.13 262.75 667.94 184.07 C 670.33 144.17 636.12 108.23 596.89 105.95 C 486.97 106.04 377.04 106.02 267.12 105.96 C 226.78 106.25 190.82 143.60 193.07 184.03 M 695.13 233.89 C 695.10 238.21 695.07 242.52 695.05 246.85 C 694.90 254.85 694.96 262.85 695.14 270.85 C 694.79 285.56 695.05 300.28 695.01 315.00 C 746.47 314.77 797.94 315.48 849.39 314.64 C 797.96 287.74 746.51 260.89 695.13 233.89 M 695.00 398.02 C 694.99 399.68 694.99 401.35 695.00 403.02 C 695.03 406.05 694.98 409.03 695.07 412.09 C 694.94 420.51 694.61 428.93 694.34 437.36 C 719.06 424.30 743.87 411.40 768.63 398.41 C 744.10 397.39 719.54 398.27 695.00 398.02 M 391.96 527.54 C 391.13 538.47 393.00 549.26 397.79 559.14 C 399.28 547.87 403.08 537.11 408.12 526.97 C 402.72 527.13 397.34 527.32 391.96 527.54 Z" />
    <path fill="#84d9f4" opacity="1.00" d=" M 193.07 184.03 C 190.82 143.60 226.78 106.25 267.12 105.96 C 377.04 106.02 486.97 106.04 596.89 105.95 C 636.12 108.23 670.33 144.17 667.94 184.07 C 651.40 159.43 623.01 142.15 592.82 143.09 C 484.57 142.85 376.32 143.10 268.06 142.97 C 237.83 141.79 209.80 159.69 193.07 184.03 Z" />
    <path fill="#00adee" opacity="1.00" d=" M 193.07 184.03 C 209.80 159.69 237.83 141.79 268.06 142.97 C 376.32 143.10 484.57 142.85 592.82 143.09 C 623.01 142.15 651.40 159.43 667.94 184.07 C 668.13 262.75 667.85 341.42 668.08 420.09 C 671.06 460.01 636.02 498.74 595.83 498.99 C 571.58 499.05 547.33 499.05 523.09 498.93 C 501.53 463.19 466.09 438.88 429.89 419.69 C 440.72 390.16 449.33 355.97 437.11 325.71 C 448.66 368.56 423.86 409.26 398.68 441.68 C 371.73 478.20 335.80 512.41 327.74 559.07 C 320.42 545.21 321.24 528.83 322.50 513.67 C 331.51 468.91 366.77 436.58 396.84 404.81 C 357.06 425.39 313.09 453.76 304.32 501.12 C 292.11 489.50 292.59 470.06 302.05 456.98 C 317.71 434.41 341.20 419.29 362.03 402.01 C 332.58 411.55 301.79 424.81 282.45 449.91 C 280.69 433.90 293.55 421.17 304.95 411.95 C 332.07 389.61 369.00 371.96 379.84 335.84 C 365.25 356.85 341.66 367.86 320.03 380.01 L 319.23 379.80 C 278.19 368.99 235.43 364.71 193.07 365.00 C 192.96 304.68 192.94 244.35 193.07 184.03 M 504.02 257.02 C 455.21 291.41 463.58 375.11 517.06 400.95 C 567.99 431.64 642.07 393.32 644.70 333.70 C 651.99 304.34 643.90 270.66 620.28 250.73 C 588.53 219.67 532.93 224.47 504.02 257.02 M 470.25 398.29 C 458.90 399.25 457.27 413.10 463.85 420.16 C 478.44 436.86 503.00 446.79 524.87 441.35 C 534.80 439.46 534.88 426.25 529.12 419.95 C 514.75 403.59 491.67 395.89 470.25 398.29 Z" />
    <path fill="#000000" opacity="1.00" d=" M 504.02 257.02 C 532.93 224.47 588.53 219.67 620.28 250.73 C 643.90 270.66 651.99 304.34 644.70 333.70 C 632.11 378.41 579.24 407.14 535.48 387.44 C 483.48 369.48 466.79 296.69 504.02 257.02 M 529.40 255.05 L 529.21 255.72 C 503.54 271.80 491.12 306.66 503.12 334.96 C 516.57 374.59 571.10 392.28 603.78 365.27 C 636.02 345.78 641.53 296.91 617.09 268.90 C 596.49 243.40 556.84 237.01 529.40 255.05 Z" />
    <path fill="#f6921e" opacity="1.00" d=" M 695.13 233.89 C 746.51 260.89 797.96 287.74 849.39 314.64 C 797.94 315.48 746.47 314.77 695.01 315.00 C 695.05 300.28 694.79 285.56 695.14 270.85 C 733.41 280.44 770.98 292.68 809.07 302.96 C 771.10 284.20 733.26 265.16 695.05 246.85 C 695.07 242.52 695.10 238.21 695.13 233.89 Z" />
    <path fill="#ffffff" opacity="1.00" d=" M 529.40 255.05 C 556.84 237.01 596.49 243.40 617.09 268.90 C 641.53 296.91 636.02 345.78 603.78 365.27 C 570.96 368.94 537.55 348.88 526.26 317.78 C 518.36 297.63 521.74 275.40 529.21 255.72 L 529.40 255.05 M 558.91 315.30 C 556.96 329.57 570.34 342.68 584.57 340.86 C 599.18 340.22 610.42 324.39 606.07 310.50 C 602.99 322.15 584.47 321.78 583.12 309.64 C 580.48 301.67 588.86 298.81 593.18 294.62 C 578.37 288.38 558.58 298.38 558.91 315.30 Z" />
    <path fill="#ffffff" opacity="1.00" d=" M 695.05 246.85 C 733.26 265.16 771.10 284.20 809.07 302.96 C 770.98 292.68 733.41 280.44 695.14 270.85 C 694.96 262.85 694.90 254.85 695.05 246.85 Z" />
    <path fill="#d0d2d3" opacity="1.00" d=" M 503.12 334.96 C 491.12 306.66 503.54 271.80 529.21 255.72 C 521.74 275.40 518.36 297.63 526.26 317.78 C 537.55 348.88 570.96 368.94 603.78 365.27 C 571.10 392.28 516.57 374.59 503.12 334.96 Z" />
    <path fill="#0594c1" opacity="1.00" d=" M 517.06 400.95 C 463.58 375.11 455.21 291.41 504.02 257.02 C 466.79 296.69 483.48 369.48 535.48 387.44 C 579.24 407.14 632.11 378.41 644.70 333.70 C 642.07 393.32 567.99 431.64 517.06 400.95 Z" />
    <path fill="#000000" opacity="1.00" d=" M 558.91 315.30 C 558.58 298.38 578.37 288.38 593.18 294.62 C 588.86 298.81 580.48 301.67 583.12 309.64 C 584.47 321.78 602.99 322.15 606.07 310.50 C 610.42 324.39 599.18 340.22 584.57 340.86 C 570.34 342.68 556.96 329.57 558.91 315.30 Z" />
    <path fill="#ffffff" opacity="1.00" d=" M 193.07 365.00 C 235.43 364.71 278.19 368.99 319.23 379.80 C 301.48 390.79 280.23 399.42 269.75 418.66 C 262.85 429.69 264.14 443.76 267.15 455.88 C 274.18 469.58 265.87 484.98 271.98 499.03 C 231.06 502.59 192.65 465.61 192.97 424.89 C 192.98 404.92 192.91 384.96 193.07 365.00 Z" />
    <path fill="#000000" opacity="1.00" d=" M 470.25 398.29 C 491.67 395.89 514.75 403.59 529.12 419.95 C 534.88 426.25 534.80 439.46 524.87 441.35 C 503.00 446.79 478.44 436.86 463.85 420.16 C 457.27 413.10 458.90 399.25 470.25 398.29 Z" />
    <path fill="#f6921e" opacity="1.00" d=" M 695.00 398.02 C 719.54 398.27 744.10 397.39 768.63 398.41 C 743.87 411.40 719.06 424.30 694.34 437.36 C 694.61 428.93 694.94 420.51 695.07 412.09 C 711.96 410.01 728.58 406.25 745.34 403.35 C 728.56 402.78 711.78 402.98 695.00 403.02 C 694.99 401.35 694.99 399.68 695.00 398.02 Z" />
    <path fill="#ffffff" opacity="1.00" d=" M 695.00 403.02 C 711.78 402.98 728.56 402.78 745.34 403.35 C 728.58 406.25 711.96 410.01 695.07 412.09 C 694.98 409.03 695.03 406.05 695.00 403.02 Z" />
    <path fill="#ffffff" opacity="1.00" d=" M 384.63 498.66 C 401.11 473.17 417.08 447.25 429.89 419.69 C 466.09 438.88 501.53 463.19 523.09 498.93 C 476.93 498.87 430.77 499.41 384.63 498.66 Z" />
    <path fill="#f6921e" opacity="1.00" d=" M 266.35 526.83 L 267.31 526.85 C 275.06 527.01 282.82 526.93 290.58 526.79 C 285.78 539.87 273.45 548.83 265.31 559.36 C 270.87 583.32 258.63 610.66 235.57 620.15 C 232.91 614.09 229.73 608.30 227.02 602.27 C 236.97 595.47 246.81 585.26 245.00 572.05 C 229.89 578.96 213.95 584.52 197.28 585.90 C 196.32 579.02 196.63 572.04 195.14 565.24 C 222.63 562.92 249.83 549.26 266.35 526.83 Z" />
    <path fill="#f6921e" opacity="1.00" d=" M 367.16 527.05 C 373.47 527.06 379.77 527.08 386.09 527.09 C 382.58 536.77 377.49 545.75 370.93 553.69 C 367.31 557.16 364.91 561.86 367.04 566.88 C 373.90 586.63 362.31 607.09 347.01 619.12 C 342.56 614.56 339.85 608.63 335.63 603.87 C 338.00 601.44 340.38 598.96 343.31 597.21 C 343.64 596.98 344.31 596.53 344.64 596.30 L 345.28 595.83 C 348.61 588.66 351.00 580.67 348.17 572.90 C 351.68 556.57 359.06 541.52 367.16 527.05 Z" />
    <path fill="#00adee" opacity="1.00" d=" M 391.96 527.54 C 397.34 527.32 402.72 527.13 408.12 526.97 C 403.08 537.11 399.28 547.87 397.79 559.14 C 393.00 549.26 391.13 538.47 391.96 527.54 Z" />
    <path fill="#f6921e" opacity="1.00" d=" M 303.87 574.21 C 306.58 573.45 309.29 572.70 312.00 571.95 C 315.96 577.26 320.46 582.15 325.36 586.62 C 319.80 588.75 314.34 591.27 308.39 592.07 C 306.47 586.23 304.90 580.27 303.87 574.21 Z" />
  </g>
  <g id="f4" transform="translate(2781,0)">
    <path fill="#000000" opacity="1.00" d=" M 591.76 6.31 C 614.47 0.66 638.72 20.38 639.91 43.48 C 641.54 58.48 636.74 73.29 629.09 86.01 C 679.87 103.56 703.80 161.88 694.97 212.35 C 769.68 253.98 847.35 291.40 922.34 332.80 C 846.56 333.28 770.78 332.84 695.01 333.01 C 694.97 349.34 694.96 365.66 695.01 381.99 C 741.13 382.23 787.27 381.58 833.39 382.29 C 785.87 408.29 737.00 432.56 689.24 458.28 C 676.54 494.65 641.88 521.81 603.68 525.87 C 531.56 526.36 459.42 525.57 387.30 526.24 C 379.95 526.62 372.60 527.03 365.26 527.25 C 341.23 526.87 317.20 526.97 293.17 527.04 C 291.83 535.07 290.87 543.16 289.70 551.22 C 285.46 550.00 281.21 548.73 277.19 546.88 C 270.78 543.89 264.75 540.13 259.26 535.68 C 255.69 529.22 251.08 523.33 242.98 522.97 C 199.87 512.66 167.33 471.98 165.98 427.87 C 165.90 394.19 166.15 360.51 165.92 326.84 C 138.08 350.81 99.07 370.69 62.07 356.89 C 47.54 349.82 29.65 336.62 33.83 318.34 C 48.54 298.91 76.26 299.90 98.26 295.15 C 54.42 284.94 8.17 247.30 19.33 197.44 C 21.23 178.72 42.88 177.24 56.57 183.43 C 97.95 200.89 132.37 230.95 165.93 260.11 C 166.29 230.18 165.63 200.24 166.16 170.31 C 171.57 122.87 212.67 82.50 260.49 79.28 C 357.69 78.54 454.93 79.34 552.15 78.89 C 533.37 70.08 514.21 61.24 498.25 47.75 C 491.10 42.67 490.04 30.46 499.08 27.03 C 530.11 10.28 569.20 23.53 591.99 48.10 C 588.03 35.38 578.90 16.06 591.76 6.31 M 193.08 184.01 C 192.94 244.34 192.95 304.67 193.08 364.99 C 193.20 388.07 192.32 411.20 193.52 434.25 C 197.70 462.57 219.05 486.83 245.90 496.13 C 233.54 482.02 225.77 462.93 229.61 443.98 C 234.93 427.53 223.32 411.07 229.47 394.58 C 234.17 380.82 247.90 373.14 260.91 368.63 C 300.18 356.82 344.94 360.11 380.01 335.96 C 346.55 369.10 295.31 367.91 257.27 393.15 C 248.21 399.10 247.12 410.09 248.91 419.86 C 274.41 391.45 313.63 381.40 350.18 377.11 C 320.87 390.30 290.69 403.60 267.21 426.20 C 256.85 436.84 246.45 451.42 251.09 467.20 C 269.71 430.59 307.90 410.68 346.14 401.14 C 319.19 419.66 291.00 439.19 273.84 467.79 C 264.44 481.45 263.09 505.94 277.71 514.42 C 283.89 467.70 324.92 437.30 362.00 413.99 C 394.66 393.41 433.17 367.77 437.56 325.74 C 446.85 357.17 429.59 389.53 405.13 408.80 C 371.36 437.84 328.75 459.10 305.77 498.79 C 378.21 499.23 450.65 498.95 523.09 498.93 C 550.49 498.76 577.93 499.67 605.31 498.49 C 638.25 492.60 665.39 463.13 667.98 429.80 C 668.00 347.89 668.06 265.98 667.94 184.07 C 670.33 144.17 636.12 108.22 596.88 105.96 C 486.96 106.03 377.05 106.02 267.13 105.96 C 226.79 106.24 190.83 143.58 193.08 184.01 M 695.11 233.93 C 695.08 238.23 695.04 242.53 695.05 246.84 C 694.91 254.84 694.97 262.85 695.13 270.85 C 694.81 285.57 695.03 300.28 695.01 315.00 C 746.41 314.54 797.88 315.93 849.25 314.31 C 797.64 287.95 746.53 260.66 695.11 233.93 M 695.00 398.02 C 694.99 399.68 694.99 401.35 694.99 403.03 C 695.02 406.05 694.98 409.03 695.07 412.08 C 694.91 420.51 694.64 428.93 694.32 437.35 C 719.07 424.34 743.83 411.37 768.62 398.44 C 744.10 397.35 719.54 398.29 695.00 398.02 Z" />
    <path fill="#84d9f4" opacity="1.00" d=" M 193.08 184.01 C 190.83 143.58 226.79 106.24 267.13 105.96 C 377.05 106.02 486.96 106.03 596.88 105.96 C 636.12 108.22 670.33 144.17 667.94 184.07 C 651.37 159.45 623.05 142.05 592.82 143.09 C 484.57 142.86 376.32 143.10 268.07 142.97 C 237.87 141.77 209.80 159.70 193.08 184.01 Z" />
    <path fill="#00adee" opacity="1.00" d=" M 193.08 184.01 C 209.80 159.70 237.87 141.77 268.07 142.97 C 376.32 143.10 484.57 142.86 592.82 143.09 C 623.05 142.05 651.37 159.45 667.94 184.07 C 668.06 265.98 668.00 347.89 667.98 429.80 C 665.39 463.13 638.25 492.60 605.31 498.49 C 577.93 499.67 550.49 498.76 523.09 498.93 C 496.16 456.10 451.25 427.32 405.13 408.80 C 429.59 389.53 446.85 357.17 437.56 325.74 C 433.17 367.77 394.66 393.41 362.00 413.99 C 324.92 437.30 283.89 467.70 277.71 514.42 C 263.09 505.94 264.44 481.45 273.84 467.79 C 291.00 439.19 319.19 419.66 346.14 401.14 C 307.90 410.68 269.71 430.59 251.09 467.20 C 246.45 451.42 256.85 436.84 267.21 426.20 C 290.69 403.60 320.87 390.30 350.18 377.11 C 313.63 381.40 274.41 391.45 248.91 419.86 C 247.12 410.09 248.21 399.10 257.27 393.15 C 295.31 367.91 346.55 369.10 380.01 335.96 C 344.94 360.11 300.18 356.82 260.91 368.63 C 238.38 366.29 215.77 364.12 193.08 364.99 C 192.95 304.67 192.94 244.34 193.08 184.01 M 504.02 257.02 C 455.21 291.42 463.58 375.10 517.05 400.95 C 567.88 431.69 642.05 393.34 644.71 333.72 C 657.32 291.29 630.10 243.76 587.71 232.27 C 558.01 224.62 524.61 234.07 504.02 257.02 M 470.11 398.51 C 459.21 399.62 456.71 413.71 464.25 420.68 C 479.08 436.88 503.31 446.97 525.14 441.36 C 534.66 439.09 535.00 426.24 528.97 420.08 C 514.84 403.52 491.48 395.70 470.11 398.51 Z" />
    <path fill="#000000" opacity="1.00" d=" M 504.02 257.02 C 524.61 234.07 558.01 224.62 587.71 232.27 C 630.10 243.76 657.32 291.29 644.71 333.72 C 632.08 378.42 579.26 407.12 535.48 387.44 C 483.48 369.47 466.80 296.69 504.02 257.02 M 529.38 255.03 L 529.20 255.71 C 498.12 274.54 488.79 320.08 510.82 349.17 C 529.99 379.33 575.85 388.15 603.77 365.28 C 628.57 350.05 639.14 315.56 628.38 288.54 C 615.28 249.43 563.56 231.93 529.38 255.03 Z" />
    <path fill="#f6921e" opacity="1.00" d=" M 695.11 233.93 C 746.53 260.66 797.64 287.95 849.25 314.31 C 797.88 315.93 746.41 314.54 695.01 315.00 C 695.03 300.28 694.81 285.57 695.13 270.85 C 733.41 280.43 770.98 292.68 809.07 302.96 C 771.10 284.18 733.25 265.16 695.05 246.84 C 695.04 242.53 695.08 238.23 695.11 233.93 Z" />
    <path fill="#ffffff" opacity="1.00" d=" M 529.38 255.03 C 563.56 231.93 615.28 249.43 628.38 288.54 C 639.14 315.56 628.57 350.05 603.77 365.28 C 570.96 368.93 537.54 348.88 526.26 317.77 C 518.37 297.63 521.76 275.40 529.20 255.71 L 529.38 255.03 M 562.95 330.91 C 576.53 352.68 614.56 335.37 605.96 310.57 C 602.98 321.79 585.36 321.93 583.25 310.41 C 580.64 302.79 587.91 298.32 593.29 294.82 C 571.42 284.08 548.36 311.57 562.95 330.91 Z" />
    <path fill="#ffffff" opacity="1.00" d=" M 695.05 246.84 C 733.25 265.16 771.10 284.18 809.07 302.96 C 770.98 292.68 733.41 280.43 695.13 270.85 C 694.97 262.85 694.91 254.84 695.05 246.84 Z" />
    <path fill="#d0d2d3" opacity="1.00" d=" M 510.82 349.17 C 488.79 320.08 498.12 274.54 529.20 255.71 C 521.76 275.40 518.37 297.63 526.26 317.77 C 537.54 348.88 570.96 368.93 603.77 365.28 C 575.85 388.15 529.99 379.33 510.82 349.17 Z" />
    <path fill="#0594c1" opacity="1.00" d=" M 517.05 400.95 C 463.58 375.10 455.21 291.42 504.02 257.02 C 466.80 296.69 483.48 369.47 535.48 387.44 C 579.26 407.12 632.08 378.42 644.71 333.72 C 642.05 393.34 567.88 431.69 517.05 400.95 Z" />
    <path fill="#000000" opacity="1.00" d=" M 562.95 330.91 C 548.36 311.57 571.42 284.08 593.29 294.82 C 587.91 298.32 580.64 302.79 583.25 310.41 C 585.36 321.93 602.98 321.79 605.96 310.57 C 614.56 335.37 576.53 352.68 562.95 330.91 Z" />
    <path fill="#ffffff" opacity="1.00" d=" M 193.08 364.99 C 215.77 364.12 238.38 366.29 260.91 368.63 C 247.90 373.14 234.17 380.82 229.47 394.58 C 223.32 411.07 234.93 427.53 229.61 443.98 C 225.77 462.93 233.54 482.02 245.90 496.13 C 219.05 486.83 197.70 462.57 193.52 434.25 C 192.32 411.20 193.20 388.07 193.08 364.99 Z" />
    <path fill="#000000" opacity="1.00" d=" M 470.11 398.51 C 491.48 395.70 514.84 403.52 528.97 420.08 C 535.00 426.24 534.66 439.09 525.14 441.36 C 503.31 446.97 479.08 436.88 464.25 420.68 C 456.71 413.71 459.21 399.62 470.11 398.51 Z" />
    <path fill="#f6921e" opacity="1.00" d=" M 695.00 398.02 C 719.54 398.29 744.10 397.35 768.62 398.44 C 743.83 411.37 719.07 424.34 694.32 437.35 C 694.64 428.93 694.91 420.51 695.07 412.08 C 711.96 409.98 728.59 406.30 745.33 403.31 C 728.55 402.82 711.77 402.95 694.99 403.03 C 694.99 401.35 694.99 399.68 695.00 398.02 Z" />
    <path fill="#ffffff" opacity="1.00" d=" M 694.99 403.03 C 711.77 402.95 728.55 402.82 745.33 403.31 C 728.59 406.30 711.96 409.98 695.07 412.08 C 694.98 409.03 695.02 406.05 694.99 403.03 Z" />
    <path fill="#ffffff" opacity="1.00" d=" M 305.77 498.79 C 328.75 459.10 371.36 437.84 405.13 408.80 C 451.25 427.32 496.16 456.10 523.09 498.93 C 450.65 498.95 378.21 499.23 305.77 498.79 Z" />
    <path fill="#f6921e" opacity="1.00" d=" M 365.26 527.25 C 372.60 527.03 379.95 526.62 387.30 526.24 C 382.24 539.82 370.67 550.82 366.45 563.68 C 374.09 584.45 363.57 606.38 346.98 619.31 C 343.07 614.37 339.59 609.11 335.96 603.97 C 344.08 596.08 351.74 586.20 349.95 574.03 C 336.64 581.10 323.41 589.24 308.40 592.06 C 306.50 586.25 304.87 580.34 303.93 574.30 C 329.11 566.85 354.21 552.15 365.26 527.25 Z" />
    <path fill="#f6921e" opacity="1.00" d=" M 195.21 565.23 C 219.17 563.47 242.04 552.28 259.26 535.68 C 264.75 540.13 270.78 543.89 277.19 546.88 C 273.22 552.18 264.18 555.25 265.32 562.85 C 270.67 585.63 257.23 609.83 237.00 619.94 C 231.87 616.06 230.37 607.96 227.03 602.26 C 236.97 595.46 246.79 585.27 245.01 572.08 C 229.86 578.93 213.93 584.54 197.24 585.90 C 196.77 578.98 196.22 572.08 195.21 565.23 Z" />
  </g>

  <g id="f5" transform="translate(0,633)">
    <path fill="#000000" opacity="1.00" d=" M 575.68 11.74 C 596.29 2.12 622.87 14.95 629.78 36.26 C 636.37 52.16 631.86 69.39 627.03 85.03 C 671.27 100.12 700.04 147.54 695.16 193.70 C 771.04 233.02 847.22 272.16 922.33 312.81 C 846.56 313.26 770.78 312.85 695.01 313.01 C 694.98 339.34 694.97 365.66 695.01 391.99 C 741.13 392.22 787.26 391.59 833.37 392.28 C 784.01 419.42 733.00 444.37 683.51 471.49 C 667.87 501.22 637.02 522.21 603.68 525.88 C 530.99 526.61 458.24 525.05 385.57 526.63 C 378.13 526.92 370.70 527.11 363.27 527.22 C 339.17 526.84 315.07 527.04 290.97 526.99 C 281.80 526.95 272.64 526.84 263.48 526.74 C 213.78 524.07 169.89 482.56 166.14 432.61 C 165.51 399.91 166.57 367.18 165.73 334.48 C 139.94 363.54 94.94 388.31 57.14 366.83 C 45.63 360.85 31.19 345.12 42.32 332.34 C 57.62 318.25 78.62 313.16 98.17 307.96 C 75.96 303.86 53.70 296.40 35.83 282.18 C 15.47 267.19 4.41 240.25 9.03 215.35 C 13.03 200.01 31.68 198.61 44.41 202.42 C 88.85 214.92 127.56 241.38 165.96 266.04 C 166.05 239.33 166.03 212.62 165.93 185.91 C 163.68 155.63 178.32 126.13 199.80 105.46 C 198.07 79.33 207.48 49.18 229.66 33.85 C 237.84 49.37 243.08 74.19 261.60 78.98 C 266.67 62.17 273.99 43.32 289.66 33.85 C 295.60 50.16 304.53 65.26 315.32 78.82 C 381.58 79.18 447.85 79.00 514.11 78.91 C 504.97 75.72 496.25 71.15 488.32 65.63 C 480.49 60.30 484.82 47.70 492.88 44.87 C 520.64 26.01 557.96 33.71 583.92 52.10 C 577.19 40.49 568.33 24.83 575.68 11.74 M 283.98 72.05 C 283.32 74.35 282.68 76.65 282.05 78.96 L 286.95 78.96 C 286.31 76.65 285.67 74.35 285.02 72.05 L 283.98 72.05 M 236.07 147.93 C 257.34 184.92 289.54 214.17 323.05 239.94 C 279.29 228.90 241.18 200.29 215.20 163.76 C 205.78 172.95 204.68 187.84 210.95 199.07 C 223.11 221.27 246.07 234.09 266.72 247.28 C 293.91 262.32 322.11 275.62 351.24 286.44 C 308.33 286.03 265.17 272.57 229.16 248.95 C 226.79 271.18 235.64 294.70 253.00 309.00 C 284.05 333.74 326.46 337.49 364.65 338.32 C 333.24 343.88 299.16 342.54 268.04 333.94 C 241.69 327.26 218.73 306.34 212.53 279.50 C 207.39 262.25 207.78 244.04 208.71 226.25 C 202.80 220.38 197.57 213.89 193.51 206.61 C 192.32 259.36 193.26 312.21 193.08 365.00 C 193.16 388.12 192.37 411.27 193.52 434.38 C 198.69 471.24 234.30 502.12 271.95 499.04 C 355.66 498.90 439.38 499.11 523.09 498.94 C 547.35 499.05 571.62 499.05 595.88 498.99 C 636.05 498.65 671.07 460.04 668.08 420.09 C 667.86 341.42 668.12 262.75 667.95 184.09 C 670.36 143.88 635.56 107.63 595.97 105.92 C 490.92 106.20 385.87 105.76 280.82 106.14 C 293.25 119.45 307.67 130.66 320.76 143.29 L 321.72 143.25 L 320.78 143.06 C 376.10 189.60 439.54 247.71 437.36 326.15 C 433.69 295.00 417.84 266.70 398.22 242.78 C 357.62 193.28 302.00 159.81 255.73 116.27 C 243.10 103.67 230.89 89.77 224.74 72.74 C 213.67 97.67 223.60 125.51 236.07 147.93 M 199.91 150.02 C 203.18 146.94 209.39 143.99 207.13 138.77 C 203.54 141.63 201.79 145.97 199.91 150.02 M 695.11 213.94 C 695.06 218.23 695.03 222.53 695.04 226.84 C 694.90 234.84 694.96 242.84 695.13 250.85 C 694.80 265.56 695.03 280.28 695.01 295.00 C 746.42 294.57 797.87 295.88 849.25 294.34 C 797.66 267.92 746.53 240.67 695.11 213.94 M 695.00 408.02 C 694.99 409.69 694.99 411.36 694.99 413.03 C 695.03 416.07 695.00 419.05 695.10 422.11 C 694.71 430.89 693.70 439.64 692.26 448.31 C 717.80 435.21 743.12 421.64 768.62 408.44 C 744.10 407.35 719.54 408.29 695.00 408.02 Z" />
    <path fill="#00adee" opacity="1.00" d=" M 283.98 72.05 L 285.02 72.05 C 285.67 74.35 286.31 76.65 286.95 78.96 L 282.05 78.96 C 282.68 76.65 283.32 74.35 283.98 72.05 Z" />
    <path fill="#00adee" opacity="1.00" d=" M 236.07 147.93 C 223.60 125.51 213.67 97.67 224.74 72.74 C 230.89 89.77 243.10 103.67 255.73 116.27 C 302.00 159.81 357.62 193.28 398.22 242.78 C 417.84 266.70 433.69 295.00 437.36 326.15 C 439.54 247.71 376.10 189.60 320.78 143.06 L 321.72 143.25 C 413.40 142.72 505.11 143.06 596.80 143.07 C 625.64 143.42 652.01 160.74 667.95 184.09 C 668.12 262.75 667.86 341.42 668.08 420.09 C 671.07 460.04 636.05 498.65 595.88 498.99 C 571.62 499.05 547.35 499.05 523.09 498.94 C 505.44 469.52 477.84 447.62 448.76 430.24 C 371.83 385.40 281.72 364.63 193.08 365.00 C 193.26 312.21 192.32 259.36 193.51 206.61 C 197.57 213.89 202.80 220.38 208.71 226.25 C 207.78 244.04 207.39 262.25 212.53 279.50 C 218.73 306.34 241.69 327.26 268.04 333.94 C 299.16 342.54 333.24 343.88 364.65 338.32 C 326.46 337.49 284.05 333.74 253.00 309.00 C 235.64 294.70 226.79 271.18 229.16 248.95 C 265.17 272.57 308.33 286.03 351.24 286.44 C 322.11 275.62 293.91 262.32 266.72 247.28 C 246.07 234.09 223.11 221.27 210.95 199.07 C 204.68 187.84 205.78 172.95 215.20 163.76 C 241.18 200.29 279.29 228.90 323.05 239.94 C 289.54 214.17 257.34 184.92 236.07 147.93 M 504.02 257.02 C 480.69 273.54 468.76 304.45 472.17 332.62 C 474.41 377.12 517.43 414.57 561.83 411.09 C 603.59 411.08 642.33 375.57 644.71 333.71 C 658.81 287.25 623.90 235.05 575.89 229.94 C 549.29 227.53 521.99 237.00 504.02 257.02 M 470.23 398.29 C 458.35 399.45 457.13 414.36 464.71 421.28 C 479.68 437.00 503.52 446.99 525.14 441.35 C 534.73 439.06 534.86 426.26 529.12 419.95 C 514.66 403.77 491.74 395.51 470.23 398.29 Z" />
    <path fill="#84d9f4" opacity="1.00" d=" M 280.82 106.14 C 385.87 105.76 490.92 106.20 595.97 105.92 C 635.56 107.63 670.36 143.88 667.95 184.09 C 652.01 160.74 625.64 143.42 596.80 143.07 C 505.11 143.06 413.40 142.72 321.72 143.25 L 320.76 143.29 C 307.67 130.66 293.25 119.45 280.82 106.14 Z" />
    <path fill="#5890a2" opacity="1.00" d=" M 199.91 150.02 C 201.79 145.97 203.54 141.63 207.13 138.77 C 209.39 143.99 203.18 146.94 199.91 150.02 Z" />
    <path fill="#f6921e" opacity="1.00" d=" M 695.11 213.94 C 746.53 240.67 797.66 267.92 849.25 294.34 C 797.87 295.88 746.42 294.57 695.01 295.00 C 695.03 280.28 694.80 265.56 695.13 250.85 C 733.41 260.43 770.98 272.67 809.07 282.97 C 771.10 264.17 733.24 245.17 695.04 226.84 C 695.03 222.53 695.06 218.23 695.11 213.94 Z" />
    <path fill="#ffffff" opacity="1.00" d=" M 695.04 226.84 C 733.24 245.17 771.10 264.17 809.07 282.97 C 770.98 272.67 733.41 260.43 695.13 250.85 C 694.96 242.84 694.90 234.84 695.04 226.84 Z" />
    <path fill="#000000" opacity="1.00" d=" M 504.02 257.02 C 521.99 237.00 549.29 227.53 575.89 229.94 C 623.90 235.05 658.81 287.25 644.71 333.71 C 634.28 367.91 600.88 395.43 564.21 392.96 C 530.55 393.27 498.47 369.92 488.23 337.88 C 477.63 310.46 485.20 278.91 504.02 257.02 M 529.39 255.04 L 529.20 255.71 C 503.56 271.81 491.12 306.65 503.12 334.96 C 516.88 375.06 570.86 391.67 604.37 365.53 L 603.44 365.51 C 628.48 350.29 639.19 315.72 628.37 288.54 C 615.25 249.42 563.66 231.64 529.39 255.04 Z" />
    <path fill="#ffffff" opacity="1.00" d=" M 529.39 255.04 C 563.66 231.64 615.25 249.42 628.37 288.54 C 639.19 315.72 628.48 350.29 603.44 365.51 C 570.75 368.58 537.49 348.88 526.27 317.77 C 518.35 297.63 521.76 275.40 529.20 255.71 L 529.39 255.04 M 562.96 330.92 C 576.72 352.69 614.21 335.39 606.03 310.55 C 602.99 321.75 585.39 321.98 583.26 310.41 C 580.63 302.78 587.90 298.31 593.30 294.83 C 571.44 284.06 548.34 311.58 562.96 330.92 Z" />
    <path fill="#d0d2d3" opacity="1.00" d=" M 503.12 334.96 C 491.12 306.65 503.56 271.81 529.20 255.71 C 521.76 275.40 518.35 297.63 526.27 317.77 C 537.49 348.88 570.75 368.58 603.44 365.51 L 604.37 365.53 C 570.86 391.67 516.88 375.06 503.12 334.96 Z" />
    <path fill="#0594c1" opacity="1.00" d=" M 472.17 332.62 C 468.76 304.45 480.69 273.54 504.02 257.02 C 485.20 278.91 477.63 310.46 488.23 337.88 C 498.47 369.92 530.55 393.27 564.21 392.96 C 600.88 395.43 634.28 367.91 644.71 333.71 C 642.33 375.57 603.59 411.08 561.83 411.09 C 517.43 414.57 474.41 377.12 472.17 332.62 Z" />
    <path fill="#000000" opacity="1.00" d=" M 562.96 330.92 C 548.34 311.58 571.44 284.06 593.30 294.83 C 587.90 298.31 580.63 302.78 583.26 310.41 C 585.39 321.98 602.99 321.75 606.03 310.55 C 614.21 335.39 576.72 352.69 562.96 330.92 Z" />
    <path fill="#ffffff" opacity="1.00" d=" M 193.08 365.00 C 281.72 364.63 371.83 385.40 448.76 430.24 C 477.84 447.62 505.44 469.52 523.09 498.94 C 439.38 499.11 355.66 498.90 271.95 499.04 C 234.30 502.12 198.69 471.24 193.52 434.38 C 192.37 411.27 193.16 388.12 193.08 365.00 Z" />
    <path fill="#000000" opacity="1.00" d=" M 470.23 398.29 C 491.74 395.51 514.66 403.77 529.12 419.95 C 534.86 426.26 534.73 439.06 525.14 441.35 C 503.52 446.99 479.68 437.00 464.71 421.28 C 457.13 414.36 458.35 399.45 470.23 398.29 Z" />
    <path fill="#f6921e" opacity="1.00" d=" M 695.00 408.02 C 719.54 408.29 744.10 407.35 768.62 408.44 C 743.12 421.64 717.80 435.21 692.26 448.31 C 693.70 439.64 694.71 430.89 695.10 422.11 C 711.97 419.95 728.60 416.30 745.34 413.33 C 728.55 412.78 711.77 412.97 694.99 413.03 C 694.99 411.36 694.99 409.69 695.00 408.02 Z" />
    <path fill="#ffffff" opacity="1.00" d=" M 694.99 413.03 C 711.77 412.97 728.55 412.78 745.34 413.33 C 728.60 416.30 711.97 419.95 695.10 422.11 C 695.00 419.05 695.03 416.07 694.99 413.03 Z" />
    <path fill="#f6921e" opacity="1.00" d=" M 189.28 551.17 C 215.97 552.52 242.72 543.45 263.48 526.74 C 272.64 526.84 281.80 526.95 290.97 526.99 C 282.02 538.58 270.70 547.94 258.24 555.54 C 262.50 580.11 244.33 603.11 222.15 610.95 C 216.76 607.21 216.53 598.29 214.30 592.10 C 225.54 587.35 236.31 578.11 237.08 565.13 C 220.94 568.47 204.91 573.12 188.22 572.18 C 188.58 565.17 188.92 558.16 189.28 551.17 Z" />
    <path fill="#f6921e" opacity="1.00" d=" M 363.27 527.22 C 370.70 527.11 378.13 526.92 385.57 526.63 C 381.19 539.86 368.94 548.22 360.24 558.44 C 365.28 580.42 352.50 603.86 332.42 613.20 C 330.39 607.62 325.53 602.42 325.34 596.44 C 334.19 590.33 342.33 581.54 341.88 569.97 C 327.76 574.46 314.21 580.77 299.05 581.15 C 297.09 575.05 296.50 568.60 296.23 562.23 C 322.02 560.68 347.83 548.33 363.27 527.22 Z" />
  </g>
  <g id="f6" transform="translate(927,633)">
    <path fill="#000000" opacity="1.00" d=" M 576.20 11.19 C 595.66 3.40 620.07 13.40 628.25 32.70 C 636.74 49.26 632.42 68.27 627.03 85.02 C 671.25 100.13 700.07 147.54 695.13 193.72 C 771.01 233.03 847.29 272.10 922.30 312.88 C 846.54 313.18 770.78 312.89 695.01 313.01 C 694.98 339.34 694.97 365.66 695.01 391.99 C 741.12 392.19 787.23 391.67 833.33 392.22 C 784.10 419.44 732.99 444.40 683.47 471.46 C 667.95 501.26 637.00 522.16 603.71 525.89 C 531.00 526.59 458.23 525.08 385.54 526.62 C 378.12 526.91 370.69 527.09 363.27 527.21 C 339.18 526.83 315.09 527.06 290.99 526.98 C 281.81 526.95 272.64 526.86 263.47 526.75 C 213.79 524.12 169.92 482.53 166.11 432.64 C 165.54 399.92 166.58 367.18 165.71 334.48 C 139.62 364.03 93.02 389.26 55.30 365.70 C 44.51 359.70 31.56 344.20 42.33 332.33 C 57.64 318.25 78.63 313.14 98.19 307.96 C 76.20 303.91 54.17 296.56 36.39 282.62 C 15.70 267.67 4.34 240.47 9.04 215.32 C 15.71 194.54 42.10 200.34 57.55 206.48 C 96.59 220.41 131.39 243.68 165.98 266.04 C 166.15 234.42 165.82 202.79 166.06 171.17 C 171.06 123.33 212.37 82.63 260.46 79.21 C 345.00 78.63 429.57 79.30 514.13 78.89 C 504.95 75.78 496.29 71.09 488.31 65.65 C 480.49 60.30 484.80 47.68 492.90 44.87 C 520.67 25.97 557.96 33.75 583.95 52.09 C 577.00 40.26 567.97 24.31 576.20 11.19 M 193.05 184.11 C 192.84 194.94 192.91 205.77 193.22 216.60 C 253.91 245.17 324.11 241.54 385.23 268.79 C 409.97 278.82 432.05 299.26 437.97 326.01 C 425.91 310.51 412.24 295.34 394.18 286.83 C 359.01 268.21 318.13 269.31 279.94 262.09 C 257.84 258.80 236.41 252.44 215.16 245.91 C 224.30 262.51 243.03 270.33 259.83 277.18 C 285.22 286.72 311.56 294.06 338.50 297.55 C 294.11 300.22 246.72 294.19 208.97 269.03 C 215.33 280.99 228.23 287.48 240.05 292.94 C 276.64 308.95 317.16 312.16 356.50 315.13 C 311.01 321.16 262.45 320.30 219.98 300.98 C 229.35 313.49 244.13 320.37 258.93 324.08 C 294.51 334.05 331.76 333.69 368.32 336.44 C 320.21 344.48 266.63 348.30 222.16 324.83 C 205.03 317.60 203.53 297.87 193.37 285.33 C 192.44 311.86 193.21 338.45 193.08 365.00 C 193.20 388.43 192.28 411.90 193.62 435.30 C 199.09 467.99 227.76 496.34 261.16 498.89 C 348.47 499.12 435.78 499.00 523.09 498.94 C 547.34 499.07 571.59 499.01 595.85 499.01 C 632.82 498.71 665.15 466.08 667.98 429.83 C 667.99 347.92 668.07 266.01 667.94 184.10 C 670.36 144.20 636.14 108.24 596.91 105.95 C 486.97 106.04 377.03 106.01 267.09 105.96 C 226.74 106.25 190.79 143.67 193.05 184.11 M 695.10 213.95 C 695.04 218.24 695.01 222.53 695.03 226.83 C 694.88 234.84 694.94 242.84 695.12 250.86 C 694.78 265.56 695.05 280.28 695.01 294.99 C 746.42 294.56 797.90 295.91 849.26 294.32 C 797.64 267.97 746.55 240.63 695.10 213.95 M 695.00 408.02 C 694.99 409.69 694.98 411.36 694.99 413.04 C 695.03 416.06 694.99 419.04 695.09 422.10 C 694.68 430.88 693.79 439.64 692.24 448.30 C 717.78 435.27 743.12 421.62 768.63 408.48 C 744.13 407.24 719.54 408.35 695.00 408.02 Z" />
    <path fill="#84d9f4" opacity="1.00" d=" M 193.05 184.11 C 190.79 143.67 226.74 106.25 267.09 105.96 C 377.03 106.01 486.97 106.04 596.91 105.95 C 636.14 108.24 670.36 144.20 667.94 184.10 C 651.44 159.42 623.01 142.18 592.84 143.08 C 484.55 142.82 376.25 143.19 267.96 142.90 C 237.81 141.81 209.69 159.74 193.05 184.11 Z" />
    <path fill="#00adee" opacity="1.00" d=" M 193.05 184.11 C 209.69 159.74 237.81 141.81 267.96 142.90 C 376.25 143.19 484.55 142.82 592.84 143.08 C 623.01 142.18 651.44 159.42 667.94 184.10 C 668.07 266.01 667.99 347.92 667.98 429.83 C 665.15 466.08 632.82 498.71 595.85 499.01 C 571.59 499.01 547.34 499.07 523.09 498.94 C 500.12 460.87 461.65 435.98 422.99 416.00 C 351.66 381.73 272.17 364.19 193.08 365.00 C 193.21 338.45 192.44 311.86 193.37 285.33 C 203.53 297.87 205.03 317.60 222.16 324.83 C 266.63 348.30 320.21 344.48 368.32 336.44 C 331.76 333.69 294.51 334.05 258.93 324.08 C 244.13 320.37 229.35 313.49 219.98 300.98 C 262.45 320.30 311.01 321.16 356.50 315.13 C 317.16 312.16 276.64 308.95 240.05 292.94 C 228.23 287.48 215.33 280.99 208.97 269.03 C 246.72 294.19 294.11 300.22 338.50 297.55 C 311.56 294.06 285.22 286.72 259.83 277.18 C 243.03 270.33 224.30 262.51 215.16 245.91 C 236.41 252.44 257.84 258.80 279.94 262.09 C 318.13 269.31 359.01 268.21 394.18 286.83 C 412.24 295.34 425.91 310.51 437.97 326.01 C 432.05 299.26 409.97 278.82 385.23 268.79 C 324.11 241.54 253.91 245.17 193.22 216.60 C 192.91 205.77 192.84 194.94 193.05 184.11 M 504.03 257.03 C 470.77 280.74 462.21 330.93 482.00 365.99 C 497.21 394.44 529.40 413.42 561.84 411.09 C 603.60 411.08 642.33 375.55 644.72 333.72 C 656.89 291.41 630.26 243.69 587.72 232.27 C 558.02 224.61 524.61 234.06 504.03 257.03 M 470.05 398.49 C 459.21 399.73 456.68 413.73 464.27 420.70 C 479.10 436.86 503.36 447.03 525.16 441.33 C 535.08 438.91 534.74 425.60 528.66 419.33 C 514.00 403.69 491.39 395.26 470.05 398.49 Z" />
    <path fill="#f6921e" opacity="1.00" d=" M 695.10 213.95 C 746.55 240.63 797.64 267.97 849.26 294.32 C 797.90 295.91 746.42 294.56 695.01 294.99 C 695.05 280.28 694.78 265.56 695.12 250.86 C 733.40 260.43 770.98 272.66 809.06 282.98 C 771.11 264.16 733.23 245.18 695.03 226.83 C 695.01 222.53 695.04 218.24 695.10 213.95 Z" />
    <path fill="#ffffff" opacity="1.00" d=" M 695.03 226.83 C 733.23 245.18 771.11 264.16 809.06 282.98 C 770.98 272.66 733.40 260.43 695.12 250.86 C 694.94 242.84 694.88 234.84 695.03 226.83 Z" />
    <path fill="#000000" opacity="1.00" d=" M 504.03 257.03 C 524.61 234.06 558.02 224.61 587.72 232.27 C 630.26 243.69 656.89 291.41 644.72 333.72 C 636.52 359.73 616.05 381.60 589.86 389.88 C 558.01 399.52 520.69 388.23 500.67 361.34 C 477.03 331.31 478.24 285.50 504.03 257.03 M 529.40 255.05 L 529.22 255.73 C 503.55 271.77 491.10 306.68 503.13 334.95 C 516.86 375.08 570.88 391.66 604.39 365.52 L 603.46 365.50 C 631.61 348.47 640.75 307.94 624.33 279.67 C 607.21 246.14 560.66 234.01 529.40 255.05 Z" />
    <path fill="#ffffff" opacity="1.00" d=" M 529.40 255.05 C 560.66 234.01 607.21 246.14 624.33 279.67 C 640.75 307.94 631.61 348.47 603.46 365.50 C 570.77 368.59 537.49 348.89 526.28 317.77 C 518.32 297.63 521.75 275.40 529.22 255.73 L 529.40 255.05 M 558.90 315.28 C 556.63 331.08 573.44 345.09 588.64 340.04 C 601.41 337.59 609.72 322.81 605.88 310.53 C 603.06 321.86 585.32 321.90 583.26 310.41 C 580.65 302.81 587.84 298.22 593.34 294.88 C 578.56 288.16 558.61 298.35 558.90 315.28 Z" />
    <path fill="#d0d2d3" opacity="1.00" d=" M 503.13 334.95 C 491.10 306.68 503.55 271.77 529.22 255.73 C 521.75 275.40 518.32 297.63 526.28 317.77 C 537.49 348.89 570.77 368.59 603.46 365.50 L 604.39 365.52 C 570.88 391.66 516.86 375.08 503.13 334.95 Z" />
    <path fill="#0594c1" opacity="1.00" d=" M 482.00 365.99 C 462.21 330.93 470.77 280.74 504.03 257.03 C 478.24 285.50 477.03 331.31 500.67 361.34 C 520.69 388.23 558.01 399.52 589.86 389.88 C 616.05 381.60 636.52 359.73 644.72 333.72 C 642.33 375.55 603.60 411.08 561.84 411.09 C 529.40 413.42 497.21 394.44 482.00 365.99 Z" />
    <path fill="#000000" opacity="1.00" d=" M 558.90 315.28 C 558.61 298.35 578.56 288.16 593.34 294.88 C 587.84 298.22 580.65 302.81 583.26 310.41 C 585.32 321.90 603.06 321.86 605.88 310.53 C 609.72 322.81 601.41 337.59 588.64 340.04 C 573.44 345.09 556.63 331.08 558.90 315.28 Z" />
    <path fill="#ffffff" opacity="1.00" d=" M 193.08 365.00 C 272.17 364.19 351.66 381.73 422.99 416.00 C 461.65 435.98 500.12 460.87 523.09 498.94 C 435.78 499.00 348.47 499.12 261.16 498.89 C 227.76 496.34 199.09 467.99 193.62 435.30 C 192.28 411.90 193.20 388.43 193.08 365.00 Z" />
    <path fill="#000000" opacity="1.00" d=" M 470.05 398.49 C 491.39 395.26 514.00 403.69 528.66 419.33 C 534.74 425.60 535.08 438.91 525.16 441.33 C 503.36 447.03 479.10 436.86 464.27 420.70 C 456.68 413.73 459.21 399.73 470.05 398.49 Z" />
    <path fill="#f6921e" opacity="1.00" d=" M 695.00 408.02 C 719.54 408.35 744.13 407.24 768.63 408.48 C 743.12 421.62 717.78 435.27 692.24 448.30 C 693.79 439.64 694.68 430.88 695.09 422.10 C 711.98 419.98 728.60 416.27 745.35 413.34 C 728.57 412.70 711.77 413.03 694.99 413.04 C 694.98 411.36 694.99 409.69 695.00 408.02 Z" />
    <path fill="#ffffff" opacity="1.00" d=" M 694.99 413.04 C 711.77 413.03 728.57 412.70 745.35 413.34 C 728.60 416.27 711.98 419.98 695.09 422.10 C 694.99 419.04 695.03 416.06 694.99 413.04 Z" />
    <path fill="#f6921e" opacity="1.00" d=" M 189.25 551.16 C 215.94 552.53 242.72 543.46 263.47 526.75 C 272.64 526.86 281.81 526.95 290.99 526.98 C 282.04 538.57 270.71 547.94 258.22 555.54 C 262.55 580.12 244.30 603.07 222.17 610.97 C 216.67 607.21 216.56 598.29 214.30 592.10 C 225.53 587.38 236.36 578.09 237.07 565.12 C 220.93 568.47 204.90 573.15 188.20 572.17 C 188.58 565.16 188.92 558.15 189.25 551.16 Z" />
    <path fill="#f6921e" opacity="1.00" d=" M 363.27 527.21 C 370.69 527.09 378.12 526.91 385.54 526.62 C 381.25 539.81 369.00 548.27 360.19 558.40 C 365.35 580.33 352.51 603.91 332.41 613.17 C 330.36 607.56 325.60 602.45 325.30 596.42 C 334.19 590.39 342.33 581.53 341.89 569.99 C 327.77 574.39 314.26 580.84 299.09 581.14 C 296.89 575.08 296.61 568.56 296.22 562.20 C 322.01 560.72 347.85 548.31 363.27 527.21 Z" />
  </g>
  <g id="f7" transform="translate(1854,633)">
    <path fill="#000000" opacity="1.00" d=" M 576.19 11.18 C 595.66 3.43 620.06 13.39 628.25 32.69 C 636.71 49.27 632.43 68.29 627.02 85.04 C 671.28 100.11 700.04 147.56 695.16 193.73 C 771.06 232.99 847.20 272.18 922.33 312.80 C 846.56 313.28 770.78 312.85 695.01 313.01 C 694.99 339.33 694.98 365.66 695.01 391.99 C 741.13 392.23 787.27 391.57 833.38 392.30 C 783.97 419.39 733.02 444.40 683.50 471.48 C 667.94 501.30 637.01 522.15 603.69 525.88 C 548.22 526.33 492.72 525.61 437.25 526.21 C 425.40 548.09 414.47 571.51 415.61 597.09 C 393.74 590.47 375.70 570.33 370.76 548.01 C 376.95 541.89 381.63 534.51 386.10 527.10 C 379.78 527.04 373.47 527.02 367.16 527.06 C 355.16 548.41 344.65 571.86 345.68 596.94 C 340.61 596.09 335.88 593.97 331.37 591.58 C 325.89 587.19 320.66 582.44 316.26 576.95 C 312.43 572.27 308.43 567.64 305.80 562.15 C 299.90 551.15 296.11 538.95 296.87 526.33 C 295.18 526.50 291.81 526.85 290.13 527.02 C 281.25 527.05 272.39 526.79 263.52 526.77 C 215.96 524.05 172.36 485.79 167.18 437.78 C 164.36 403.46 167.10 368.95 165.68 334.57 C 139.85 363.55 94.92 388.31 57.14 366.83 C 45.64 360.84 31.17 345.12 42.33 332.34 C 57.63 318.25 78.63 313.15 98.17 307.95 C 75.95 303.93 53.71 296.37 35.83 282.18 C 15.47 267.19 4.41 240.25 9.03 215.35 C 15.48 194.84 41.56 200.18 56.82 206.23 C 96.14 220.12 131.18 243.52 165.95 266.05 C 166.17 234.43 165.79 202.81 166.07 171.19 C 171.05 123.37 212.37 82.55 260.48 79.25 C 345.01 78.57 429.57 79.32 514.11 78.90 C 504.95 75.76 496.26 71.12 488.32 65.63 C 480.49 60.31 484.82 47.69 492.89 44.87 C 520.65 25.99 557.96 33.73 583.94 52.10 C 577.02 40.24 567.97 24.32 576.19 11.18 M 193.09 184.02 C 192.92 244.34 192.97 304.67 193.07 365.00 C 192.91 384.96 192.98 404.93 192.98 424.89 C 192.74 465.59 231.06 502.62 272.05 499.01 C 265.71 485.13 274.42 469.59 266.81 456.18 C 264.37 446.48 264.33 436.03 266.13 426.24 C 274.45 402.38 299.11 392.00 319.01 379.77 C 341.55 369.18 364.78 356.44 379.86 335.85 C 368.96 371.97 332.13 389.63 305.02 412.02 C 293.48 421.08 280.75 433.92 282.44 449.89 C 302.18 424.51 333.59 411.23 363.32 401.31 C 341.73 418.44 318.21 434.20 301.99 456.95 C 292.72 470.06 292.06 489.35 304.22 501.02 C 313.21 453.70 356.99 425.29 396.84 404.82 C 367.69 435.64 333.85 466.69 323.47 509.49 C 321.01 525.93 319.85 543.93 327.78 559.08 C 339.22 496.82 395.85 457.76 423.80 403.80 C 437.23 380.32 444.47 352.52 437.09 325.74 C 449.15 355.58 441.80 390.22 429.66 419.05 C 417.85 447.24 400.97 472.93 384.63 498.65 C 430.77 499.42 476.93 498.86 523.09 498.93 C 545.72 499.12 568.36 498.91 591.00 499.08 C 629.55 501.14 665.56 468.05 667.97 429.81 C 668.00 347.90 668.07 265.98 667.93 184.07 C 670.34 144.17 636.12 108.23 596.89 105.95 C 486.97 106.05 377.05 105.99 267.13 105.99 C 226.81 106.22 190.80 143.61 193.09 184.02 M 695.13 213.90 C 695.07 218.22 695.05 222.54 695.06 226.87 C 694.93 234.86 694.98 242.86 695.13 250.86 C 694.82 265.57 695.03 280.28 695.01 295.00 C 746.41 294.56 797.87 295.88 849.24 294.34 C 797.67 267.90 746.50 240.71 695.13 213.90 M 695.00 408.01 C 694.99 409.68 694.99 411.35 694.99 413.02 C 695.03 416.06 695.01 419.05 695.10 422.12 C 694.71 430.90 693.74 439.65 692.25 448.31 C 717.78 435.17 743.15 421.67 768.64 408.48 C 744.12 407.28 719.54 408.34 695.00 408.01 M 391.88 527.52 C 391.18 538.43 392.99 549.25 397.80 559.11 C 398.98 547.93 403.70 537.72 407.29 527.21 C 403.44 527.28 395.73 527.44 391.88 527.52 Z" />
    <path fill="#84d9f4" opacity="1.00" d=" M 193.09 184.02 C 190.80 143.61 226.81 106.22 267.13 105.99 C 377.05 105.99 486.97 106.05 596.89 105.95 C 636.12 108.23 670.34 144.17 667.93 184.07 C 651.40 159.42 623.01 142.17 592.83 143.08 C 484.58 142.86 376.31 143.10 268.06 142.97 C 237.87 141.79 209.79 159.69 193.09 184.02 Z" />
    <path fill="#00adee" opacity="1.00" d=" M 193.09 184.02 C 209.79 159.69 237.87 141.79 268.06 142.97 C 376.31 143.10 484.58 142.86 592.83 143.08 C 623.01 142.17 651.40 159.42 667.93 184.07 C 668.07 265.98 668.00 347.90 667.97 429.81 C 665.56 468.05 629.55 501.14 591.00 499.08 C 568.36 498.91 545.72 499.12 523.09 498.93 C 501.63 462.69 465.43 439.32 429.66 419.05 C 441.80 390.22 449.15 355.58 437.09 325.74 C 444.47 352.52 437.23 380.32 423.80 403.80 C 395.85 457.76 339.22 496.82 327.78 559.08 C 319.85 543.93 321.01 525.93 323.47 509.49 C 333.85 466.69 367.69 435.64 396.84 404.82 C 356.99 425.29 313.21 453.70 304.22 501.02 C 292.06 489.35 292.72 470.06 301.99 456.95 C 318.21 434.20 341.73 418.44 363.32 401.31 C 333.59 411.23 302.18 424.51 282.44 449.89 C 280.75 433.92 293.48 421.08 305.02 412.02 C 332.13 389.63 368.96 371.97 379.86 335.85 C 364.78 356.44 341.55 369.18 319.01 379.77 C 278.02 368.94 235.43 364.38 193.07 365.00 C 192.97 304.67 192.92 244.34 193.09 184.02 M 504.02 257.02 C 470.16 281.22 461.92 332.72 483.09 367.89 C 498.62 395.32 530.15 413.35 561.83 411.09 C 603.63 411.08 642.29 375.54 644.76 333.68 C 659.08 285.62 621.21 231.36 571.06 229.85 C 545.87 228.35 520.99 238.43 504.02 257.02 M 470.23 398.29 C 458.90 399.30 457.26 413.11 463.86 420.16 C 478.50 436.95 503.17 446.86 525.15 441.35 C 535.08 438.92 534.73 425.64 528.67 419.34 C 514.12 403.56 491.43 395.89 470.23 398.29 Z" />
    <path fill="#f6921e" opacity="1.00" d=" M 695.13 213.90 C 746.50 240.71 797.67 267.90 849.24 294.34 C 797.87 295.88 746.41 294.56 695.01 295.00 C 695.03 280.28 694.82 265.57 695.13 250.86 C 733.41 260.42 770.98 272.68 809.07 282.96 C 771.10 264.20 733.27 245.15 695.06 226.87 C 695.05 222.54 695.07 218.22 695.13 213.90 Z" />
    <path fill="#ffffff" opacity="1.00" d=" M 695.06 226.87 C 733.27 245.15 771.10 264.20 809.07 282.96 C 770.98 272.68 733.41 260.42 695.13 250.86 C 694.98 242.86 694.93 234.86 695.06 226.87 Z" />
    <path fill="#000000" opacity="1.00" d=" M 504.02 257.02 C 520.99 238.43 545.87 228.35 571.06 229.85 C 621.21 231.36 659.08 285.62 644.76 333.68 C 634.24 367.86 600.93 395.44 564.20 392.97 C 530.56 393.26 498.46 369.92 488.23 337.88 C 477.61 310.45 485.22 278.91 504.02 257.02 M 529.39 255.04 L 529.21 255.71 C 503.56 271.81 491.11 306.66 503.13 334.96 C 516.89 375.08 570.83 391.64 604.39 365.55 L 603.44 365.52 C 628.47 350.28 639.21 315.72 628.37 288.54 C 615.25 249.42 563.66 231.64 529.39 255.04 Z" />
    <path fill="#ffffff" opacity="1.00" d=" M 529.39 255.04 C 563.66 231.64 615.25 249.42 628.37 288.54 C 639.21 315.72 628.47 350.28 603.44 365.52 C 563.95 369.88 524.29 338.60 522.08 298.54 C 519.98 283.65 524.58 269.53 529.21 255.71 L 529.39 255.04 M 562.97 330.92 C 576.72 352.70 614.25 335.36 606.01 310.54 C 603.02 321.76 585.36 321.98 583.26 310.41 C 580.65 302.80 587.87 298.27 593.31 294.85 C 571.46 284.01 548.31 311.61 562.97 330.92 Z" />
    <path fill="#d0d2d3" opacity="1.00" d=" M 503.13 334.96 C 491.11 306.66 503.56 271.81 529.21 255.71 C 524.58 269.53 519.98 283.65 522.08 298.54 C 524.29 338.60 563.95 369.88 603.44 365.52 L 604.39 365.55 C 570.83 391.64 516.89 375.08 503.13 334.96 Z" />
    <path fill="#0594c1" opacity="1.00" d=" M 483.09 367.89 C 461.92 332.72 470.16 281.22 504.02 257.02 C 485.22 278.91 477.61 310.45 488.23 337.88 C 498.46 369.92 530.56 393.26 564.20 392.97 C 600.93 395.44 634.24 367.86 644.76 333.68 C 642.29 375.54 603.63 411.08 561.83 411.09 C 530.15 413.35 498.62 395.32 483.09 367.89 Z" />
    <path fill="#000000" opacity="1.00" d=" M 562.97 330.92 C 548.31 311.61 571.46 284.01 593.31 294.85 C 587.87 298.27 580.65 302.80 583.26 310.41 C 585.36 321.98 603.02 321.76 606.01 310.54 C 614.25 335.36 576.72 352.70 562.97 330.92 Z" />
    <path fill="#ffffff" opacity="1.00" d=" M 193.07 365.00 C 235.43 364.38 278.02 368.94 319.01 379.77 C 299.11 392.00 274.45 402.38 266.13 426.24 C 264.33 436.03 264.37 446.48 266.81 456.18 C 274.42 469.59 265.71 485.13 272.05 499.01 C 231.06 502.62 192.74 465.59 192.98 424.89 C 192.98 404.93 192.91 384.96 193.07 365.00 Z" />
    <path fill="#000000" opacity="1.00" d=" M 470.23 398.29 C 491.43 395.89 514.12 403.56 528.67 419.34 C 534.73 425.64 535.08 438.92 525.15 441.35 C 503.17 446.86 478.50 436.95 463.86 420.16 C 457.26 413.11 458.90 399.30 470.23 398.29 Z" />
    <path fill="#f6921e" opacity="1.00" d=" M 695.00 408.01 C 719.54 408.34 744.12 407.28 768.64 408.48 C 743.15 421.67 717.78 435.17 692.25 448.31 C 693.74 439.65 694.71 430.90 695.10 422.12 C 711.98 419.95 728.59 416.29 745.34 413.33 C 728.55 412.81 711.77 412.97 694.99 413.02 C 694.99 411.35 694.99 409.68 695.00 408.01 Z" />
    <path fill="#ffffff" opacity="1.00" d=" M 694.99 413.02 C 711.77 412.97 728.55 412.81 745.34 413.33 C 728.59 416.29 711.98 419.95 695.10 422.12 C 695.01 419.05 695.03 416.06 694.99 413.02 Z" />
    <path fill="#ffffff" opacity="1.00" d=" M 384.63 498.65 C 400.97 472.93 417.85 447.24 429.66 419.05 C 465.43 439.32 501.63 462.69 523.09 498.93 C 476.93 498.86 430.77 499.42 384.63 498.65 Z" />
    <path fill="#f6921e" opacity="1.00" d=" M 189.26 551.17 C 215.99 552.56 242.69 543.40 263.52 526.77 C 272.39 526.79 281.25 527.05 290.13 527.02 L 291.08 527.03 C 281.94 538.45 270.81 547.99 258.25 555.49 C 262.33 578.76 246.42 599.71 226.44 609.54 C 216.84 614.99 216.98 598.30 214.28 592.09 C 225.56 587.39 236.31 578.09 237.08 565.13 C 220.95 568.49 204.90 573.11 188.21 572.18 C 188.59 565.17 188.92 558.16 189.26 551.17 Z" />
    <path fill="#f6921e" opacity="1.00" d=" M 367.16 527.06 C 373.47 527.02 379.78 527.04 386.10 527.10 C 381.63 534.51 376.95 541.89 370.76 548.01 C 367.56 552.55 359.07 555.16 360.29 561.82 C 364.64 582.78 351.16 604.33 332.42 613.20 C 329.10 605.93 319.94 595.82 331.37 591.58 C 335.88 593.97 340.61 596.09 345.68 596.94 C 344.65 571.86 355.16 548.41 367.16 527.06 Z" />
    <path fill="#00adee" opacity="1.00" d=" M 391.88 527.52 C 395.73 527.44 403.44 527.28 407.29 527.21 C 403.70 537.72 398.98 547.93 397.80 559.11 C 392.99 549.25 391.18 538.43 391.88 527.52 Z" />
    <path fill="#f6921e" opacity="1.00" d=" M 296.19 562.03 C 299.37 562.01 302.61 562.07 305.80 562.15 C 308.43 567.64 312.43 572.27 316.26 576.95 C 311.58 581.08 304.97 580.18 299.18 581.18 C 296.89 575.07 296.63 568.46 296.19 562.03 Z" />
  </g>
  <g id="f8" transform="translate(2781,633)">
    <path fill="#000000" opacity="1.00" d=" M 576.19 11.18 C 595.66 3.43 620.07 13.39 628.25 32.70 C 636.74 49.26 632.41 68.26 627.04 85.01 C 668.60 99.42 697.89 142.75 694.93 186.72 C 694.45 189.41 694.37 193.39 697.46 194.57 C 772.36 233.92 847.65 272.64 922.29 312.44 C 846.58 313.78 770.77 312.58 695.02 313.02 C 694.98 339.34 694.96 365.66 695.02 391.98 C 741.12 392.19 787.22 391.68 833.32 392.20 C 784.14 419.47 732.97 444.37 683.48 471.47 C 667.92 501.25 637.01 522.18 603.70 525.88 C 530.99 526.59 458.23 525.08 385.54 526.61 C 378.12 526.89 370.70 527.07 363.29 527.20 C 339.91 526.91 316.52 526.94 293.15 527.04 C 291.79 535.06 290.93 543.15 289.70 551.20 C 284.01 549.72 278.50 547.52 273.26 544.86 C 267.03 541.27 261.04 537.10 256.20 531.75 C 254.99 530.16 252.58 526.98 251.37 525.40 C 206.52 517.14 169.76 478.40 166.13 432.62 C 165.52 399.92 166.57 367.19 165.73 334.49 C 149.65 353.02 127.93 366.83 104.23 373.30 C 81.03 379.56 52.35 371.47 40.04 349.82 C 36.24 343.68 38.42 336.07 43.33 331.28 C 58.76 318.10 79.01 312.98 98.18 307.96 C 75.96 303.86 53.70 296.40 35.83 282.18 C 15.47 267.19 4.40 240.24 9.03 215.34 C 15.68 194.53 42.11 200.36 57.55 206.48 C 96.60 220.41 131.39 243.70 165.99 266.02 C 166.15 234.41 165.80 202.79 166.06 171.18 C 171.05 123.35 212.37 82.58 260.47 79.23 C 345.01 78.61 429.58 79.30 514.12 78.91 C 501.92 73.34 476.65 66.90 486.97 49.27 C 514.50 25.42 556.18 32.21 583.95 52.10 C 577.02 40.24 567.97 24.33 576.19 11.18 M 193.05 184.08 C 192.98 244.38 192.93 304.69 193.09 365.00 C 193.15 388.08 192.38 411.21 193.50 434.27 C 197.86 462.53 218.97 486.89 245.90 496.12 C 232.39 480.96 225.18 459.73 230.31 439.59 C 233.79 427.39 225.40 415.74 228.05 403.34 C 228.02 385.44 244.83 374.09 260.12 368.79 C 299.56 356.68 344.71 360.33 379.98 335.92 C 346.84 369.52 295.11 367.53 257.38 393.25 C 248.15 398.96 247.07 410.16 248.92 419.87 C 274.15 391.02 313.82 381.70 350.22 377.11 C 320.84 390.17 290.72 403.63 267.21 426.20 C 256.70 436.72 246.52 451.47 251.06 467.18 C 269.73 430.58 307.86 410.66 346.13 401.11 C 317.43 421.10 286.44 442.09 270.37 474.32 C 264.35 487.20 265.49 505.97 276.99 514.72 C 280.87 502.18 283.44 487.19 291.99 475.98 C 317.87 434.75 364.94 416.22 401.27 386.28 C 420.09 371.36 434.73 349.96 437.62 325.76 C 446.81 357.25 429.62 389.50 405.14 408.81 C 371.41 437.85 328.62 459.16 305.74 498.80 C 378.19 499.24 450.64 498.94 523.10 498.95 C 548.94 498.94 574.80 499.29 600.64 498.81 C 638.82 495.38 670.96 458.51 668.07 420.09 C 667.86 341.43 668.13 262.76 667.94 184.10 C 670.35 144.20 636.14 108.23 596.90 105.95 C 486.97 106.04 377.04 106.02 267.11 105.96 C 226.75 106.25 190.82 143.64 193.05 184.08 M 695.08 214.00 C 695.02 218.26 694.99 222.53 695.02 226.80 C 694.86 234.82 694.93 242.83 695.11 250.85 C 694.77 265.56 695.04 280.27 695.02 294.99 C 746.42 294.57 797.89 295.89 849.26 294.34 C 797.63 267.98 746.58 240.58 695.08 214.00 M 695.00 408.03 C 694.99 409.70 694.98 411.37 694.99 413.05 C 695.02 416.07 694.99 419.04 695.09 422.09 C 694.68 430.87 693.76 439.63 692.23 448.29 C 717.78 435.21 743.14 421.67 768.64 408.47 C 744.12 407.29 719.54 408.31 695.00 408.03 Z" />
    <path fill="#84d9f4" opacity="1.00" d=" M 193.05 184.08 C 190.82 143.64 226.75 106.25 267.11 105.96 C 377.04 106.02 486.97 106.04 596.90 105.95 C 636.14 108.23 670.35 144.20 667.94 184.10 C 652.24 160.89 626.21 143.77 597.65 143.26 C 487.76 142.58 377.86 143.31 267.97 142.90 C 237.80 141.80 209.73 159.75 193.05 184.08 Z" />
    <path fill="#00adee" opacity="1.00" d=" M 193.05 184.08 C 209.73 159.75 237.80 141.80 267.97 142.90 C 377.86 143.31 487.76 142.58 597.65 143.26 C 626.21 143.77 652.24 160.89 667.94 184.10 C 668.13 262.76 667.86 341.43 668.07 420.09 C 670.96 458.51 638.82 495.38 600.64 498.81 C 574.80 499.29 548.94 498.94 523.10 498.95 C 496.17 456.12 451.26 427.31 405.14 408.81 C 429.62 389.50 446.81 357.25 437.62 325.76 C 434.73 349.96 420.09 371.36 401.27 386.28 C 364.94 416.22 317.87 434.75 291.99 475.98 C 283.44 487.19 280.87 502.18 276.99 514.72 C 265.49 505.97 264.35 487.20 270.37 474.32 C 286.44 442.09 317.43 421.10 346.13 401.11 C 307.86 410.66 269.73 430.58 251.06 467.18 C 246.52 451.47 256.70 436.72 267.21 426.20 C 290.72 403.63 320.84 390.17 350.22 377.11 C 313.82 381.70 274.15 391.02 248.92 419.87 C 247.07 410.16 248.15 398.96 257.38 393.25 C 295.11 367.53 346.84 369.52 379.98 335.92 C 344.71 360.33 299.56 356.68 260.12 368.79 C 237.90 365.93 215.50 364.26 193.09 365.00 C 192.93 304.69 192.98 244.38 193.05 184.08 M 504.02 257.03 C 470.16 281.19 461.92 332.72 483.09 367.89 C 498.63 395.32 530.15 413.35 561.84 411.09 C 603.60 411.08 642.32 375.56 644.72 333.72 C 657.30 291.29 630.12 243.78 587.72 232.27 C 558.02 224.62 524.61 234.06 504.02 257.03 M 470.07 398.50 C 459.22 399.70 456.69 413.72 464.26 420.69 C 479.09 436.87 503.34 447.01 525.15 441.34 C 535.08 438.91 534.74 425.63 528.66 419.34 C 514.01 403.70 491.41 395.26 470.07 398.50 Z" />
    <path fill="#f6921e" opacity="1.00" d=" M 695.08 214.00 C 746.58 240.58 797.63 267.98 849.26 294.34 C 797.89 295.89 746.42 294.57 695.02 294.99 C 695.04 280.27 694.77 265.56 695.11 250.85 C 733.40 260.44 770.98 272.65 809.06 282.99 C 771.11 264.14 733.20 245.19 695.02 226.80 C 694.99 222.53 695.02 218.26 695.08 214.00 Z" />
    <path fill="#ffffff" opacity="1.00" d=" M 695.02 226.80 C 733.20 245.19 771.11 264.14 809.06 282.99 C 770.98 272.65 733.40 260.44 695.11 250.85 C 694.93 242.83 694.86 234.82 695.02 226.80 Z" />
    <path fill="#000000" opacity="1.00" d=" M 504.02 257.03 C 524.61 234.06 558.02 224.62 587.72 232.27 C 630.12 243.78 657.30 291.29 644.72 333.72 C 634.25 367.90 600.88 395.43 564.20 392.97 C 530.56 393.26 498.45 369.92 488.24 337.87 C 477.59 310.46 485.22 278.91 504.02 257.03 M 529.40 255.06 L 529.21 255.73 C 503.54 271.78 491.12 306.67 503.13 334.95 C 516.87 375.07 570.86 391.66 604.38 365.54 L 603.45 365.50 C 631.61 348.49 640.75 307.94 624.33 279.67 C 607.21 246.14 560.65 234.01 529.40 255.06 Z" />
    <path fill="#ffffff" opacity="1.00" d=" M 529.40 255.06 C 560.65 234.01 607.21 246.14 624.33 279.67 C 640.75 307.94 631.61 348.49 603.45 365.50 C 570.75 368.58 537.50 348.88 526.27 317.77 C 518.35 297.64 521.74 275.40 529.21 255.73 L 529.40 255.06 M 558.91 315.29 C 556.63 331.09 573.43 345.08 588.63 340.03 C 601.42 337.60 609.67 322.85 605.92 310.55 C 603.03 321.83 585.33 321.91 583.26 310.41 C 580.63 302.78 587.90 298.28 593.32 294.84 C 578.52 288.22 558.60 298.33 558.91 315.29 Z" />
    <path fill="#d0d2d3" opacity="1.00" d=" M 503.13 334.95 C 491.12 306.67 503.54 271.78 529.21 255.73 C 521.74 275.40 518.35 297.64 526.27 317.77 C 537.50 348.88 570.75 368.58 603.45 365.50 L 604.38 365.54 C 570.86 391.66 516.87 375.07 503.13 334.95 Z" />
    <path fill="#0594c1" opacity="1.00" d=" M 483.09 367.89 C 461.92 332.72 470.16 281.19 504.02 257.03 C 485.22 278.91 477.59 310.46 488.24 337.87 C 498.45 369.92 530.56 393.26 564.20 392.97 C 600.88 395.43 634.25 367.90 644.72 333.72 C 642.32 375.56 603.60 411.08 561.84 411.09 C 530.15 413.35 498.63 395.32 483.09 367.89 Z" />
    <path fill="#000000" opacity="1.00" d=" M 558.91 315.29 C 558.60 298.33 578.52 288.22 593.32 294.84 C 587.90 298.28 580.63 302.78 583.26 310.41 C 585.33 321.91 603.03 321.83 605.92 310.55 C 609.67 322.85 601.42 337.60 588.63 340.03 C 573.43 345.08 556.63 331.09 558.91 315.29 Z" />
    <path fill="#ffffff" opacity="1.00" d=" M 193.09 365.00 C 215.50 364.26 237.90 365.93 260.12 368.79 C 244.83 374.09 228.02 385.44 228.05 403.34 C 225.40 415.74 233.79 427.39 230.31 439.59 C 225.18 459.73 232.39 480.96 245.90 496.12 C 218.97 486.89 197.86 462.53 193.50 434.27 C 192.38 411.21 193.15 388.08 193.09 365.00 Z" />
    <path fill="#000000" opacity="1.00" d=" M 470.07 398.50 C 491.41 395.26 514.01 403.70 528.66 419.34 C 534.74 425.63 535.08 438.91 525.15 441.34 C 503.34 447.01 479.09 436.87 464.26 420.69 C 456.69 413.72 459.22 399.70 470.07 398.50 Z" />
    <path fill="#f6921e" opacity="1.00" d=" M 695.00 408.03 C 719.54 408.31 744.12 407.29 768.64 408.47 C 743.14 421.67 717.78 435.21 692.23 448.29 C 693.76 439.63 694.68 430.87 695.09 422.09 C 711.97 419.96 728.60 416.31 745.35 413.33 C 728.56 412.67 711.77 413.03 694.99 413.05 C 694.98 411.37 694.99 409.70 695.00 408.03 Z" />
    <path fill="#ffffff" opacity="1.00" d=" M 305.74 498.80 C 328.62 459.16 371.41 437.85 405.14 408.81 C 451.26 427.31 496.17 456.12 523.10 498.95 C 450.64 498.94 378.19 499.24 305.74 498.80 Z" />
    <path fill="#ffffff" opacity="1.00" d=" M 694.99 413.05 C 711.77 413.03 728.56 412.67 745.35 413.33 C 728.60 416.31 711.97 419.96 695.09 422.09 C 694.99 419.04 695.02 416.07 694.99 413.05 Z" />
    <path fill="#f6921e" opacity="1.00" d=" M 363.29 527.20 C 370.70 527.07 378.12 526.89 385.54 526.61 C 381.28 539.83 368.96 548.24 360.21 558.41 C 365.30 580.33 352.51 603.96 332.44 613.17 C 329.71 607.68 326.67 602.27 324.94 596.36 C 334.30 590.79 342.20 581.48 341.89 570.00 C 327.76 574.35 314.26 580.87 299.09 581.13 C 296.90 575.08 296.58 568.57 296.24 562.22 C 322.04 560.69 347.85 548.31 363.29 527.20 Z" />
    <path fill="#f6921e" opacity="1.00" d=" M 189.27 551.17 C 212.79 552.04 237.12 545.83 256.20 531.75 C 261.04 537.10 267.03 541.27 273.26 544.86 C 268.35 548.59 263.28 552.11 258.21 555.63 C 262.51 580.17 244.27 603.10 222.18 610.96 C 216.62 607.22 216.57 598.30 214.31 592.11 C 225.51 587.33 236.36 578.11 237.07 565.13 C 220.93 568.44 204.91 573.16 188.21 572.17 C 188.56 565.17 188.91 558.16 189.27 551.17 Z" />
  </g>
  
  </g>
</svg>
